%FSLAX46Y46*%
G04 Gerber Fmt 4.6, Leading zero omitted, Abs format (unit mm)*
G04 Created by KiCad (PCBNEW (2014-08-29 BZR 5106)-product) date Thu 16 Oct 2014 10:56:15 AM PDT*
%MOMM*%
G01*
G04 APERTURE LIST*
%ADD10C,0.100000*%
%ADD11R,0.400000X0.600000*%
%ADD12R,0.797560X0.797560*%
%ADD13R,2.100000X1.250000*%
%ADD14R,0.600000X0.500000*%
%ADD15R,0.600000X0.400000*%
%ADD16R,0.350000X1.000000*%
%ADD17R,0.500000X0.600000*%
%ADD18R,1.000000X1.250000*%
%ADD19R,0.750000X0.800000*%
%ADD20R,0.599440X0.248920*%
%ADD21R,0.248920X0.599440*%
%ADD22R,3.299460X3.299460*%
%ADD23R,1.150000X1.400000*%
G04 APERTURE END LIST*
D10*
D11*
X138118000Y-103251000D03*
X137218000Y-103251000D03*
D12*
X144270512Y-106071266D03*
X144270512Y-104572666D03*
D13*
X148717000Y-117402000D03*
X148717000Y-124152000D03*
D10*
G36*
X145419756Y-111577206D02*
X145590766Y-111107360D01*
X146154582Y-111312572D01*
X145983572Y-111782418D01*
X145419756Y-111577206D01*
X145419756Y-111577206D01*
G37*
G36*
X146453418Y-111953428D02*
X146624428Y-111483582D01*
X147188244Y-111688794D01*
X147017234Y-112158640D01*
X146453418Y-111953428D01*
X146453418Y-111953428D01*
G37*
G36*
X147530736Y-112791818D02*
X147177182Y-112438264D01*
X147601446Y-112014000D01*
X147955000Y-112367554D01*
X147530736Y-112791818D01*
X147530736Y-112791818D01*
G37*
G36*
X148308554Y-112014000D02*
X147955000Y-111660446D01*
X148379264Y-111236182D01*
X148732818Y-111589736D01*
X148308554Y-112014000D01*
X148308554Y-112014000D01*
G37*
D14*
X148675000Y-115316000D03*
X149775000Y-115316000D03*
D12*
X142746512Y-106071266D03*
X142746512Y-104572666D03*
X135877300Y-123444000D03*
X134378700Y-123444000D03*
X135877300Y-124968000D03*
X134378700Y-124968000D03*
D10*
G36*
X148861640Y-114378234D02*
X148391794Y-114549244D01*
X148186582Y-113985428D01*
X148656428Y-113814418D01*
X148861640Y-114378234D01*
X148861640Y-114378234D01*
G37*
G36*
X148485418Y-113344572D02*
X148015572Y-113515582D01*
X147810360Y-112951766D01*
X148280206Y-112780756D01*
X148485418Y-113344572D01*
X148485418Y-113344572D01*
G37*
D15*
X144270512Y-103231966D03*
X144270512Y-102331966D03*
X142746512Y-103231966D03*
X142746512Y-102331966D03*
D11*
X133038000Y-123444000D03*
X132138000Y-123444000D03*
X133038000Y-124968000D03*
X132138000Y-124968000D03*
D16*
X144668000Y-111368000D03*
X144018000Y-111368000D03*
X143368000Y-111368000D03*
X143368000Y-113168000D03*
X144018000Y-113168000D03*
X144668000Y-113168000D03*
D17*
X134747000Y-103166000D03*
X134747000Y-102066000D03*
D18*
X136922000Y-106172000D03*
X138922000Y-106172000D03*
D14*
X136991000Y-108585000D03*
X138091000Y-108585000D03*
D17*
X137160000Y-119168000D03*
X137160000Y-118068000D03*
D14*
X136991000Y-107569000D03*
X138091000Y-107569000D03*
D18*
X138700000Y-116713000D03*
X140700000Y-116713000D03*
D14*
X132800000Y-115062000D03*
X133900000Y-115062000D03*
X138515000Y-115570000D03*
X139615000Y-115570000D03*
D17*
X135509000Y-108627000D03*
X135509000Y-107527000D03*
X137668000Y-115909000D03*
X137668000Y-117009000D03*
D19*
X138684000Y-119876000D03*
X138684000Y-118376000D03*
D11*
X132138000Y-103124000D03*
X133038000Y-103124000D03*
D15*
X133858000Y-104082000D03*
X133858000Y-103182000D03*
X133858000Y-103193000D03*
X133858000Y-102293000D03*
D11*
X138118000Y-104267000D03*
X137218000Y-104267000D03*
D15*
X133858000Y-108654000D03*
X133858000Y-107754000D03*
D20*
X140319760Y-114015520D03*
X140319760Y-113515140D03*
X140319760Y-113014760D03*
X140319760Y-112514380D03*
X140319760Y-112016540D03*
X140319760Y-111516160D03*
X140319760Y-111015780D03*
X140319760Y-110515400D03*
D21*
X137673080Y-109865160D03*
X137175240Y-109865160D03*
X136674860Y-109865160D03*
X136174480Y-109865160D03*
D22*
X137922000Y-112268000D03*
D21*
X139672060Y-109865160D03*
X139171680Y-109865160D03*
X138671300Y-109865160D03*
X138173460Y-109865160D03*
D20*
X135524240Y-110520480D03*
X135521700Y-111020860D03*
X135521700Y-111518700D03*
X135521700Y-112019080D03*
X135521700Y-112519460D03*
X135521700Y-113019840D03*
X135521700Y-113520220D03*
X135521700Y-114020600D03*
D21*
X136171940Y-114668300D03*
X136672320Y-114668300D03*
X137172700Y-114668300D03*
X137670540Y-114668300D03*
X138170920Y-114668300D03*
X138671300Y-114668300D03*
X139171680Y-114668300D03*
X139672060Y-114668300D03*
D23*
X135420000Y-118702000D03*
X135420000Y-116502000D03*
X133820000Y-116502000D03*
X133820000Y-118702000D03*
D11*
X137472000Y-125984000D03*
X138372000Y-125984000D03*
D15*
X150114000Y-108262000D03*
X150114000Y-109162000D03*
M02*
