%FSLAX46Y46*%
G04 Gerber Fmt 4.6, Leading zero omitted, Abs format (unit mm)*
G04 Created by KiCad (PCBNEW (2014-08-29 BZR 5106)-product) date Fri 17 Oct 2014 10:25:43 AM PDT*
%MOMM*%
G01*
G04 APERTURE LIST*
%ADD10C,0.100000*%
%ADD11C,1.524000*%
%ADD12C,0.762000*%
%ADD13C,0.254000*%
%ADD14C,0.203200*%
G04 APERTURE END LIST*
D10*
D11*
X128905000Y-124460000D03*
X128905000Y-121920000D03*
X128905000Y-119380000D03*
X128905000Y-116840000D03*
X128905000Y-114300000D03*
X128905000Y-111760000D03*
X128905000Y-109220000D03*
X128905000Y-106680000D03*
X128905000Y-104140000D03*
X128905000Y-101600000D03*
D12*
X141351000Y-110363000D03*
X145161000Y-102362000D03*
X141859000Y-102362000D03*
X144272000Y-101473000D03*
X142748000Y-101473000D03*
X133858000Y-101473000D03*
X132588000Y-104394000D03*
X135382000Y-104648000D03*
X132588000Y-118618000D03*
X149860000Y-101600000D03*
X148082000Y-104140000D03*
X145542000Y-108077000D03*
X147574000Y-108077000D03*
X149225000Y-108077000D03*
X151257000Y-108077000D03*
X150114000Y-107442000D03*
X144018000Y-107696000D03*
X135472151Y-109637849D03*
X137038099Y-120020099D03*
X132080000Y-125984000D03*
X131572000Y-115062000D03*
X132588000Y-116332000D03*
X135636000Y-102108000D03*
X134874000Y-101092000D03*
X132842000Y-102108000D03*
X132842000Y-107696000D03*
X133858000Y-106934000D03*
X135382000Y-106426000D03*
X138938000Y-107442000D03*
X138938000Y-104902000D03*
X139954000Y-106172000D03*
X133858000Y-110490000D03*
X133858000Y-112522000D03*
X131318000Y-105664000D03*
X142240000Y-113284000D03*
X136906000Y-113284000D03*
X136906000Y-111252000D03*
X138938000Y-113284000D03*
X138938000Y-111252000D03*
X137922000Y-112268000D03*
X139192000Y-126111000D03*
X146558000Y-109093000D03*
X149225000Y-109093000D03*
X147828000Y-110998000D03*
X148971000Y-110998000D03*
X148971000Y-112268000D03*
X149733000Y-114427000D03*
X150622000Y-115443000D03*
X147790788Y-115443000D03*
X146431000Y-115443000D03*
X145034000Y-116078000D03*
X144399000Y-117729000D03*
X144399000Y-119253000D03*
X144399000Y-121031000D03*
X144399000Y-122809000D03*
X144399000Y-124460000D03*
X144399000Y-126111000D03*
X141732000Y-126111000D03*
X138430000Y-123063000D03*
X141986000Y-120523000D03*
X141224000Y-123952000D03*
X144018000Y-110236000D03*
X144399000Y-114554000D03*
X141935210Y-114808000D03*
X141859000Y-116713000D03*
X140716000Y-117983000D03*
X139954000Y-119888000D03*
X138762114Y-121363114D03*
X138430000Y-124968000D03*
X147066000Y-113538000D03*
X145669000Y-112649000D03*
X151511000Y-111125000D03*
X151511000Y-113411000D03*
X150114000Y-110109000D03*
X151511000Y-109093000D03*
X151511000Y-115443000D03*
X136906000Y-123444000D03*
X140462000Y-115062000D03*
X141199833Y-113824022D03*
X137160000Y-124968000D03*
X129540000Y-110490000D03*
X132588000Y-112522000D03*
X132588000Y-109220000D03*
X142113000Y-108331000D03*
X139446000Y-103124000D03*
D13*
X141351000Y-110363000D02*
X138938000Y-107950000D01*
X138938000Y-107950000D02*
X138938000Y-107442000D01*
X145161000Y-106553000D02*
X145161000Y-102900815D01*
X144018000Y-107696000D02*
X145161000Y-106553000D01*
X145161000Y-102900815D02*
X145161000Y-102362000D01*
X144272000Y-101473000D02*
X145161000Y-102362000D01*
X141859000Y-101473000D02*
X141859000Y-102362000D01*
X141732000Y-101346000D02*
X141859000Y-101473000D01*
X142748000Y-101473000D02*
X144272000Y-101473000D01*
X142209185Y-101473000D02*
X142748000Y-101473000D01*
X141859000Y-101473000D02*
X142209185Y-101473000D01*
X134238999Y-101092001D02*
X133858000Y-101473000D01*
X134874000Y-101092000D02*
X134238999Y-101092001D01*
X132842000Y-102108000D02*
X132842000Y-104140000D01*
X132842000Y-104140000D02*
X132588000Y-104394000D01*
X135636000Y-102108000D02*
X135636000Y-104394000D01*
X135636000Y-104394000D02*
X135382000Y-104648000D01*
X131318000Y-119888000D02*
X132207001Y-118998999D01*
X131318000Y-120735146D02*
X131318000Y-119888000D01*
X132207001Y-118998999D02*
X132588000Y-118618000D01*
X132588000Y-116332000D02*
X132588000Y-118618000D01*
X149860000Y-101600000D02*
X148082000Y-103378000D01*
X148082000Y-103378000D02*
X148082000Y-104140000D01*
X145542000Y-108077000D02*
X145542000Y-106680000D01*
X145542000Y-106680000D02*
X148082000Y-104140000D01*
X149225000Y-108077000D02*
X147574000Y-108077000D01*
X134874000Y-101092000D02*
X135636000Y-101092000D01*
X135636000Y-101092000D02*
X135636000Y-102108000D01*
X136652000Y-102108000D02*
X137414000Y-101346000D01*
X137414000Y-101346000D02*
X141732000Y-101346000D01*
X135636000Y-102108000D02*
X136652000Y-102108000D01*
X133858000Y-110490000D02*
X133858000Y-109643989D01*
X134933336Y-109637849D02*
X134927196Y-109643989D01*
X133858000Y-109643989D02*
X133858000Y-108712000D01*
X134927196Y-109643989D02*
X133858000Y-109643989D01*
X135472151Y-109637849D02*
X134933336Y-109637849D01*
X133858000Y-108712000D02*
X132842000Y-107696000D01*
X133858000Y-112522000D02*
X133350000Y-113030000D01*
X133350000Y-113030000D02*
X133350000Y-114808000D01*
X133096000Y-115062000D02*
X131572000Y-115062000D01*
X133350000Y-114808000D02*
X133096000Y-115062000D01*
X131318000Y-124387558D02*
X131318000Y-120735146D01*
X137038099Y-120020099D02*
X136499284Y-120020099D01*
X136499284Y-120020099D02*
X135784237Y-120735146D01*
X135784237Y-120735146D02*
X131318000Y-120735146D01*
X131318000Y-125984000D02*
X131318000Y-124387558D01*
X128905000Y-124460000D02*
X129982630Y-124460000D01*
X129982630Y-124460000D02*
X130055072Y-124387558D01*
X130055072Y-124387558D02*
X131318000Y-124387558D01*
X132080000Y-125984000D02*
X131318000Y-125984000D01*
X131572000Y-116332000D02*
X132588000Y-116332000D01*
X131572000Y-115062000D02*
X131572000Y-116332000D01*
X132842000Y-107696000D02*
X133222999Y-107315001D01*
X133222999Y-107315001D02*
X133222999Y-102488999D01*
X133222999Y-102488999D02*
X132842000Y-102108000D01*
X133858000Y-106934000D02*
X134874000Y-106934000D01*
X134874000Y-106934000D02*
X135382000Y-106426000D01*
X137922000Y-106426000D02*
X135382000Y-106426000D01*
X138938000Y-107442000D02*
X137922000Y-106426000D01*
X139954000Y-106172000D02*
X139954000Y-105918000D01*
X139954000Y-105918000D02*
X138938000Y-104902000D01*
X133858000Y-111983185D02*
X133858000Y-110490000D01*
X133858000Y-112522000D02*
X133858000Y-111983185D01*
X128905000Y-121920000D02*
X130556000Y-120269000D01*
X130556000Y-120269000D02*
X130556000Y-114808000D01*
X130556000Y-114808000D02*
X131318000Y-114046000D01*
X131318000Y-114046000D02*
X131318000Y-106202815D01*
X131318000Y-106202815D02*
X131318000Y-105664000D01*
X142620999Y-113664999D02*
X142240000Y-113284000D01*
X144399000Y-114554000D02*
X143510000Y-114554000D01*
X141859001Y-112903001D02*
X142240000Y-113284000D01*
X141478000Y-112522000D02*
X141859001Y-112903001D01*
X138206815Y-112522000D02*
X141478000Y-112522000D01*
X143510000Y-114554000D02*
X142620999Y-113664999D01*
X137698815Y-112776000D02*
X137414000Y-112776000D01*
X138938000Y-111252000D02*
X136906000Y-113284000D01*
X138938000Y-113284000D02*
X138430000Y-112776000D01*
X137952815Y-112776000D02*
X137698815Y-112776000D01*
X138430000Y-112776000D02*
X137698815Y-112776000D01*
X138529604Y-112844789D02*
X138206815Y-112522000D01*
X138529604Y-112875604D02*
X138529604Y-112844789D01*
X138206815Y-112522000D02*
X137952815Y-112776000D01*
X137414000Y-112776000D02*
X137286999Y-112903001D01*
X137286999Y-112903001D02*
X136906000Y-113284000D01*
X138938000Y-111252000D02*
X136906000Y-111252000D01*
X139192000Y-125730000D02*
X139192000Y-126111000D01*
X138430000Y-124968000D02*
X139192000Y-125730000D01*
X145415000Y-110236000D02*
X146177001Y-109473999D01*
X146177001Y-109473999D02*
X146558000Y-109093000D01*
X144018000Y-110236000D02*
X145415000Y-110236000D01*
X150481133Y-110349133D02*
X149605999Y-109473999D01*
X150481133Y-110857133D02*
X150481133Y-110349133D01*
X149605999Y-109473999D02*
X149225000Y-109093000D01*
X148971000Y-110998000D02*
X147828000Y-110998000D01*
X149225000Y-110998000D02*
X148971000Y-110998000D01*
X150114000Y-110109000D02*
X149225000Y-110998000D01*
X148971000Y-112268000D02*
X148971000Y-110998000D01*
X151511000Y-115443000D02*
X150622000Y-115443000D01*
X146431000Y-115443000D02*
X147790788Y-115443000D01*
X144653001Y-116458999D02*
X145034000Y-116078000D01*
X144399000Y-116713000D02*
X144653001Y-116458999D01*
X144399000Y-117729000D02*
X144399000Y-116713000D01*
X144399000Y-121031000D02*
X144399000Y-119253000D01*
X144399000Y-124460000D02*
X144399000Y-122809000D01*
X141732000Y-126111000D02*
X144399000Y-126111000D01*
X138762114Y-121363114D02*
X138762114Y-122730886D01*
X138762114Y-122730886D02*
X138430000Y-123063000D01*
X141224000Y-123952000D02*
X141224000Y-123413185D01*
X141224000Y-123413185D02*
X141986000Y-122651185D01*
X141986000Y-122651185D02*
X141986000Y-120523000D01*
X141859000Y-116713000D02*
X141859000Y-114884210D01*
X141859000Y-114884210D02*
X141935210Y-114808000D01*
X139954000Y-119888000D02*
X139954000Y-118745000D01*
X139954000Y-118745000D02*
X140716000Y-117983000D01*
X145669000Y-112649000D02*
X146177000Y-112649000D01*
X146177000Y-112649000D02*
X147066000Y-113538000D01*
X151511000Y-111506000D02*
X150667428Y-110662428D01*
X151511000Y-111887000D02*
X150481133Y-110857133D01*
X150667428Y-110662428D02*
X150494999Y-110489999D01*
X150481133Y-110857133D02*
X150481133Y-110848723D01*
X150481133Y-110848723D02*
X150667428Y-110662428D01*
X151511000Y-111887000D02*
X151511000Y-111125000D01*
X151511000Y-109093000D02*
X151511000Y-111125000D01*
X151511000Y-112141000D02*
X151511000Y-113411000D01*
X150494999Y-110489999D02*
X150114000Y-110109000D01*
X151511000Y-112141000D02*
X151511000Y-111506000D01*
X151511000Y-112141000D02*
X151511000Y-111887000D01*
X136906000Y-123444000D02*
X136906000Y-121158000D01*
X136906000Y-121158000D02*
X137922000Y-120142000D01*
X137922000Y-120142000D02*
X137922000Y-117602000D01*
X137922000Y-117602000D02*
X140462000Y-115062000D01*
X141224000Y-114330815D02*
X141199833Y-114306648D01*
X141199833Y-114306648D02*
X141199833Y-113824022D01*
X137160000Y-124968000D02*
X137668000Y-124460000D01*
X137668000Y-124460000D02*
X137668000Y-121451426D01*
X137668000Y-121451426D02*
X138430000Y-120689426D01*
X138430000Y-120689426D02*
X138430000Y-118385646D01*
X138430000Y-118385646D02*
X141224000Y-115591646D01*
X141224000Y-115591646D02*
X141224000Y-114330815D01*
X141224000Y-115023447D02*
X141224000Y-114330815D01*
X130174999Y-111124999D02*
X129920999Y-110870999D01*
X130174999Y-113030001D02*
X130174999Y-111124999D01*
X128905000Y-114300000D02*
X130174999Y-113030001D01*
X129920999Y-110870999D02*
X129540000Y-110490000D01*
X132588000Y-109220000D02*
X132588000Y-112522000D01*
X132588000Y-112237185D02*
X132588000Y-109220000D01*
X142113000Y-107792185D02*
X142113000Y-108331000D01*
X142113000Y-105791000D02*
X142113000Y-107792185D01*
X139446000Y-103124000D02*
X142113000Y-105791000D01*
D14*
G36*
X151790400Y-115722400D02*
X147574000Y-115722400D01*
X146545492Y-115722400D01*
X145490057Y-115986259D01*
X144942259Y-116534057D01*
X144678400Y-117589492D01*
X144678400Y-126390400D01*
X138023600Y-126390400D01*
X138023600Y-124690092D01*
X138066931Y-124625243D01*
X138099800Y-124460000D01*
X138099800Y-121630284D01*
X138735329Y-120994755D01*
X138828931Y-120854669D01*
X138828931Y-120854668D01*
X138834384Y-120827252D01*
X138861800Y-120689426D01*
X138861801Y-120689426D01*
X138861800Y-120689420D01*
X138861800Y-118564503D01*
X141529325Y-115896977D01*
X141529329Y-115896975D01*
X141529329Y-115896974D01*
X141622931Y-115756889D01*
X141622931Y-115756888D01*
X141628384Y-115729472D01*
X141655800Y-115591646D01*
X141655801Y-115591646D01*
X141655800Y-115591640D01*
X141655800Y-115023447D01*
X141655800Y-114330815D01*
X141655800Y-114329975D01*
X141805054Y-114180982D01*
X141909681Y-113929013D01*
X141909919Y-113656184D01*
X141805732Y-113404033D01*
X141612982Y-113210946D01*
X141361013Y-113106319D01*
X141088184Y-113106081D01*
X140836033Y-113210268D01*
X140642946Y-113403018D01*
X140538319Y-113654987D01*
X140538081Y-113927816D01*
X140642268Y-114179967D01*
X140792200Y-114330161D01*
X140792200Y-114330815D01*
X140792200Y-114456537D01*
X140599013Y-114376319D01*
X140326184Y-114376081D01*
X140074033Y-114480268D01*
X139880946Y-114673018D01*
X139776319Y-114924987D01*
X139776133Y-115137208D01*
X138023600Y-116889742D01*
X138023600Y-113944400D01*
X136245600Y-113944400D01*
X136245600Y-110591600D01*
X139598400Y-110591600D01*
X139598400Y-111353600D01*
X141774084Y-111353600D01*
X144314084Y-108813600D01*
X151790400Y-108813600D01*
X151790400Y-115722400D01*
X151790400Y-115722400D01*
G37*
X151790400Y-115722400D02*
X147574000Y-115722400D01*
X146545492Y-115722400D01*
X145490057Y-115986259D01*
X144942259Y-116534057D01*
X144678400Y-117589492D01*
X144678400Y-126390400D01*
X138023600Y-126390400D01*
X138023600Y-124690092D01*
X138066931Y-124625243D01*
X138099800Y-124460000D01*
X138099800Y-121630284D01*
X138735329Y-120994755D01*
X138828931Y-120854669D01*
X138828931Y-120854668D01*
X138834384Y-120827252D01*
X138861800Y-120689426D01*
X138861801Y-120689426D01*
X138861800Y-120689420D01*
X138861800Y-118564503D01*
X141529325Y-115896977D01*
X141529329Y-115896975D01*
X141529329Y-115896974D01*
X141622931Y-115756889D01*
X141622931Y-115756888D01*
X141628384Y-115729472D01*
X141655800Y-115591646D01*
X141655801Y-115591646D01*
X141655800Y-115591640D01*
X141655800Y-115023447D01*
X141655800Y-114330815D01*
X141655800Y-114329975D01*
X141805054Y-114180982D01*
X141909681Y-113929013D01*
X141909919Y-113656184D01*
X141805732Y-113404033D01*
X141612982Y-113210946D01*
X141361013Y-113106319D01*
X141088184Y-113106081D01*
X140836033Y-113210268D01*
X140642946Y-113403018D01*
X140538319Y-113654987D01*
X140538081Y-113927816D01*
X140642268Y-114179967D01*
X140792200Y-114330161D01*
X140792200Y-114330815D01*
X140792200Y-114456537D01*
X140599013Y-114376319D01*
X140326184Y-114376081D01*
X140074033Y-114480268D01*
X139880946Y-114673018D01*
X139776319Y-114924987D01*
X139776133Y-115137208D01*
X138023600Y-116889742D01*
X138023600Y-113944400D01*
X136245600Y-113944400D01*
X136245600Y-110591600D01*
X139598400Y-110591600D01*
X139598400Y-111353600D01*
X141774084Y-111353600D01*
X144314084Y-108813600D01*
X151790400Y-108813600D01*
X151790400Y-115722400D01*
G36*
X151790400Y-108407200D02*
X151511598Y-108407200D01*
X151375184Y-108407081D01*
X151374895Y-108407200D01*
X149225598Y-108407200D01*
X149089184Y-108407081D01*
X149088895Y-108407200D01*
X146558598Y-108407200D01*
X146422184Y-108407081D01*
X146421895Y-108407200D01*
X144145748Y-108407200D01*
X142798919Y-109754029D01*
X142798919Y-108195184D01*
X142694732Y-107943033D01*
X142544800Y-107792838D01*
X142544800Y-107792185D01*
X142544800Y-105791005D01*
X142544800Y-105791000D01*
X142544801Y-105791000D01*
X142511932Y-105625758D01*
X142511931Y-105625757D01*
X142480872Y-105579274D01*
X142418329Y-105485672D01*
X142418329Y-105485671D01*
X142418325Y-105485668D01*
X140131735Y-103199077D01*
X140131919Y-102988184D01*
X140027732Y-102736033D01*
X139834982Y-102542946D01*
X139583013Y-102438319D01*
X139310184Y-102438081D01*
X139058033Y-102542268D01*
X138864946Y-102735018D01*
X138760319Y-102986987D01*
X138760081Y-103259816D01*
X138864268Y-103511967D01*
X139057018Y-103705054D01*
X139308987Y-103809681D01*
X139521208Y-103809866D01*
X141681200Y-105969857D01*
X141681200Y-107792185D01*
X141681200Y-107793024D01*
X141531946Y-107942018D01*
X141427319Y-108193987D01*
X141427081Y-108466816D01*
X141531268Y-108718967D01*
X141724018Y-108912054D01*
X141975987Y-109016681D01*
X142248816Y-109016919D01*
X142500967Y-108912732D01*
X142694054Y-108719982D01*
X142798681Y-108468013D01*
X142798919Y-108195184D01*
X142798919Y-109754029D01*
X141605748Y-110947200D01*
X140004800Y-110947200D01*
X140004800Y-110185200D01*
X135839200Y-110185200D01*
X135839200Y-114350800D01*
X137617200Y-114350800D01*
X137617200Y-117296142D01*
X137616671Y-117296671D01*
X137523069Y-117436757D01*
X137490200Y-117602000D01*
X137490200Y-119963142D01*
X136600671Y-120852671D01*
X136507069Y-120992757D01*
X136474200Y-121158000D01*
X136474200Y-122906024D01*
X136324946Y-123055018D01*
X136220319Y-123306987D01*
X136220081Y-123579816D01*
X136324268Y-123831967D01*
X136517018Y-124025054D01*
X136768987Y-124129681D01*
X137041816Y-124129919D01*
X137236200Y-124049600D01*
X137236200Y-124281142D01*
X137235077Y-124282264D01*
X137024184Y-124282081D01*
X136772033Y-124386268D01*
X136578946Y-124579018D01*
X136474319Y-124830987D01*
X136474081Y-125103816D01*
X136578268Y-125355967D01*
X136771018Y-125549054D01*
X137022987Y-125653681D01*
X137295816Y-125653919D01*
X137547967Y-125549732D01*
X137617200Y-125480619D01*
X137617200Y-126390400D01*
X133273919Y-126390400D01*
X133273919Y-112386184D01*
X133169732Y-112134033D01*
X133019800Y-111983838D01*
X133019800Y-109757975D01*
X133169054Y-109608982D01*
X133273681Y-109357013D01*
X133273919Y-109084184D01*
X133169732Y-108832033D01*
X132976982Y-108638946D01*
X132725013Y-108534319D01*
X132452184Y-108534081D01*
X132200033Y-108638268D01*
X132006946Y-108831018D01*
X132003919Y-108838307D01*
X132003919Y-105528184D01*
X131899732Y-105276033D01*
X131706982Y-105082946D01*
X131455013Y-104978319D01*
X131182184Y-104978081D01*
X130930033Y-105082268D01*
X130736946Y-105275018D01*
X130632319Y-105526987D01*
X130632081Y-105799816D01*
X130736268Y-106051967D01*
X130886200Y-106202161D01*
X130886200Y-106202815D01*
X130886200Y-113867142D01*
X130606800Y-114146542D01*
X130606800Y-113030001D01*
X130606799Y-113029995D01*
X130606799Y-111124999D01*
X130573930Y-110959756D01*
X130480328Y-110819670D01*
X130226328Y-110565670D01*
X130225735Y-110565077D01*
X130225919Y-110354184D01*
X130121732Y-110102033D01*
X129928982Y-109908946D01*
X129784818Y-109849084D01*
X129808862Y-109825083D01*
X129971615Y-109433131D01*
X129971985Y-109008731D01*
X129971985Y-106468731D01*
X129971985Y-103928731D01*
X129971985Y-101388731D01*
X129809916Y-100996496D01*
X129510083Y-100696138D01*
X129118131Y-100533385D01*
X128693731Y-100533015D01*
X128301496Y-100695084D01*
X128001138Y-100994917D01*
X127838385Y-101386869D01*
X127838015Y-101811269D01*
X128000084Y-102203504D01*
X128299917Y-102503862D01*
X128691869Y-102666615D01*
X129116269Y-102666985D01*
X129508504Y-102504916D01*
X129808862Y-102205083D01*
X129971615Y-101813131D01*
X129971985Y-101388731D01*
X129971985Y-103928731D01*
X129809916Y-103536496D01*
X129510083Y-103236138D01*
X129118131Y-103073385D01*
X128693731Y-103073015D01*
X128301496Y-103235084D01*
X128001138Y-103534917D01*
X127838385Y-103926869D01*
X127838015Y-104351269D01*
X128000084Y-104743504D01*
X128299917Y-105043862D01*
X128691869Y-105206615D01*
X129116269Y-105206985D01*
X129508504Y-105044916D01*
X129808862Y-104745083D01*
X129971615Y-104353131D01*
X129971985Y-103928731D01*
X129971985Y-106468731D01*
X129809916Y-106076496D01*
X129510083Y-105776138D01*
X129118131Y-105613385D01*
X128693731Y-105613015D01*
X128301496Y-105775084D01*
X128001138Y-106074917D01*
X127838385Y-106466869D01*
X127838015Y-106891269D01*
X128000084Y-107283504D01*
X128299917Y-107583862D01*
X128691869Y-107746615D01*
X129116269Y-107746985D01*
X129508504Y-107584916D01*
X129808862Y-107285083D01*
X129971615Y-106893131D01*
X129971985Y-106468731D01*
X129971985Y-109008731D01*
X129809916Y-108616496D01*
X129510083Y-108316138D01*
X129118131Y-108153385D01*
X128693731Y-108153015D01*
X128301496Y-108315084D01*
X128001138Y-108614917D01*
X127838385Y-109006869D01*
X127838015Y-109431269D01*
X128000084Y-109823504D01*
X128299917Y-110123862D01*
X128691869Y-110286615D01*
X128881810Y-110286780D01*
X128854319Y-110352987D01*
X128854081Y-110625816D01*
X128881914Y-110693179D01*
X128693731Y-110693015D01*
X128301496Y-110855084D01*
X128001138Y-111154917D01*
X127838385Y-111546869D01*
X127838015Y-111971269D01*
X128000084Y-112363504D01*
X128299917Y-112663862D01*
X128691869Y-112826615D01*
X129116269Y-112826985D01*
X129508504Y-112664916D01*
X129743199Y-112430631D01*
X129743199Y-112851143D01*
X129289710Y-113304631D01*
X129118131Y-113233385D01*
X128693731Y-113233015D01*
X128301496Y-113395084D01*
X128001138Y-113694917D01*
X127838385Y-114086869D01*
X127838015Y-114511269D01*
X128000084Y-114903504D01*
X128299917Y-115203862D01*
X128691869Y-115366615D01*
X129116269Y-115366985D01*
X129508504Y-115204916D01*
X129808862Y-114905083D01*
X129971615Y-114513131D01*
X129971985Y-114088731D01*
X129900334Y-113915323D01*
X130480328Y-113335330D01*
X130573930Y-113195244D01*
X130573930Y-113195243D01*
X130579383Y-113167827D01*
X130606799Y-113030001D01*
X130606800Y-113030001D01*
X130606800Y-114146542D01*
X130250671Y-114502671D01*
X130157069Y-114642757D01*
X130124200Y-114808000D01*
X130124200Y-120090142D01*
X129971985Y-120242357D01*
X129971985Y-119168731D01*
X129971985Y-116628731D01*
X129809916Y-116236496D01*
X129510083Y-115936138D01*
X129118131Y-115773385D01*
X128693731Y-115773015D01*
X128301496Y-115935084D01*
X128001138Y-116234917D01*
X127838385Y-116626869D01*
X127838015Y-117051269D01*
X128000084Y-117443504D01*
X128299917Y-117743862D01*
X128691869Y-117906615D01*
X129116269Y-117906985D01*
X129508504Y-117744916D01*
X129808862Y-117445083D01*
X129971615Y-117053131D01*
X129971985Y-116628731D01*
X129971985Y-119168731D01*
X129809916Y-118776496D01*
X129510083Y-118476138D01*
X129118131Y-118313385D01*
X128693731Y-118313015D01*
X128301496Y-118475084D01*
X128001138Y-118774917D01*
X127838385Y-119166869D01*
X127838015Y-119591269D01*
X128000084Y-119983504D01*
X128299917Y-120283862D01*
X128691869Y-120446615D01*
X129116269Y-120446985D01*
X129508504Y-120284916D01*
X129808862Y-119985083D01*
X129971615Y-119593131D01*
X129971985Y-119168731D01*
X129971985Y-120242357D01*
X129289711Y-120924631D01*
X129118131Y-120853385D01*
X128693731Y-120853015D01*
X128301496Y-121015084D01*
X128001138Y-121314917D01*
X127838385Y-121706869D01*
X127838015Y-122131269D01*
X128000084Y-122523504D01*
X128299917Y-122823862D01*
X128691869Y-122986615D01*
X129116269Y-122986985D01*
X129508504Y-122824916D01*
X129808862Y-122525083D01*
X129971615Y-122133131D01*
X129971985Y-121708731D01*
X129900334Y-121535323D01*
X130861325Y-120574331D01*
X130861329Y-120574329D01*
X130861329Y-120574328D01*
X130923872Y-120480726D01*
X130954931Y-120434243D01*
X130954932Y-120434242D01*
X130987800Y-120269000D01*
X130987801Y-120269000D01*
X130987800Y-120268994D01*
X130987800Y-114986858D01*
X131623329Y-114351329D01*
X131716931Y-114211243D01*
X131716931Y-114211242D01*
X131722384Y-114183826D01*
X131749800Y-114046000D01*
X131749801Y-114046000D01*
X131749800Y-114045994D01*
X131749800Y-106202815D01*
X131749800Y-106201975D01*
X131899054Y-106052982D01*
X132003681Y-105801013D01*
X132003919Y-105528184D01*
X132003919Y-108838307D01*
X131902319Y-109082987D01*
X131902081Y-109355816D01*
X132006268Y-109607967D01*
X132156200Y-109758161D01*
X132156200Y-111984024D01*
X132006946Y-112133018D01*
X131902319Y-112384987D01*
X131902081Y-112657816D01*
X132006268Y-112909967D01*
X132199018Y-113103054D01*
X132450987Y-113207681D01*
X132723816Y-113207919D01*
X132975967Y-113103732D01*
X133169054Y-112910982D01*
X133273681Y-112659013D01*
X133273919Y-112386184D01*
X133273919Y-126390400D01*
X129975042Y-126390400D01*
X129975042Y-124264805D01*
X129818892Y-123870175D01*
X129799658Y-123841390D01*
X129637973Y-123762948D01*
X129602052Y-123798869D01*
X129602052Y-123727027D01*
X129523610Y-123565342D01*
X129134151Y-123396712D01*
X128709805Y-123389958D01*
X128315175Y-123546108D01*
X128286390Y-123565342D01*
X128207948Y-123727027D01*
X128905000Y-124424079D01*
X129602052Y-123727027D01*
X129602052Y-123798869D01*
X128940921Y-124460000D01*
X129637973Y-125157052D01*
X129799658Y-125078610D01*
X129968288Y-124689151D01*
X129975042Y-124264805D01*
X129975042Y-126390400D01*
X129602052Y-126390400D01*
X129602052Y-125192973D01*
X128905000Y-124495921D01*
X128869079Y-124531842D01*
X128869079Y-124460000D01*
X128172027Y-123762948D01*
X128010342Y-123841390D01*
X127841712Y-124230849D01*
X127834958Y-124655195D01*
X127991108Y-125049825D01*
X128010342Y-125078610D01*
X128172027Y-125157052D01*
X128869079Y-124460000D01*
X128869079Y-124531842D01*
X128207948Y-125192973D01*
X128286390Y-125354658D01*
X128675849Y-125523288D01*
X129100195Y-125530042D01*
X129494825Y-125373892D01*
X129523610Y-125354658D01*
X129602052Y-125192973D01*
X129602052Y-126390400D01*
X127609600Y-126390400D01*
X127609600Y-99669600D01*
X149843513Y-99669600D01*
X150583021Y-99916103D01*
X151069816Y-100159500D01*
X151300500Y-100390184D01*
X151543897Y-100876979D01*
X151790400Y-101616487D01*
X151790400Y-108407200D01*
X151790400Y-108407200D01*
G37*
X151790400Y-108407200D02*
X151511598Y-108407200D01*
X151375184Y-108407081D01*
X151374895Y-108407200D01*
X149225598Y-108407200D01*
X149089184Y-108407081D01*
X149088895Y-108407200D01*
X146558598Y-108407200D01*
X146422184Y-108407081D01*
X146421895Y-108407200D01*
X144145748Y-108407200D01*
X142798919Y-109754029D01*
X142798919Y-108195184D01*
X142694732Y-107943033D01*
X142544800Y-107792838D01*
X142544800Y-107792185D01*
X142544800Y-105791005D01*
X142544800Y-105791000D01*
X142544801Y-105791000D01*
X142511932Y-105625758D01*
X142511931Y-105625757D01*
X142480872Y-105579274D01*
X142418329Y-105485672D01*
X142418329Y-105485671D01*
X142418325Y-105485668D01*
X140131735Y-103199077D01*
X140131919Y-102988184D01*
X140027732Y-102736033D01*
X139834982Y-102542946D01*
X139583013Y-102438319D01*
X139310184Y-102438081D01*
X139058033Y-102542268D01*
X138864946Y-102735018D01*
X138760319Y-102986987D01*
X138760081Y-103259816D01*
X138864268Y-103511967D01*
X139057018Y-103705054D01*
X139308987Y-103809681D01*
X139521208Y-103809866D01*
X141681200Y-105969857D01*
X141681200Y-107792185D01*
X141681200Y-107793024D01*
X141531946Y-107942018D01*
X141427319Y-108193987D01*
X141427081Y-108466816D01*
X141531268Y-108718967D01*
X141724018Y-108912054D01*
X141975987Y-109016681D01*
X142248816Y-109016919D01*
X142500967Y-108912732D01*
X142694054Y-108719982D01*
X142798681Y-108468013D01*
X142798919Y-108195184D01*
X142798919Y-109754029D01*
X141605748Y-110947200D01*
X140004800Y-110947200D01*
X140004800Y-110185200D01*
X135839200Y-110185200D01*
X135839200Y-114350800D01*
X137617200Y-114350800D01*
X137617200Y-117296142D01*
X137616671Y-117296671D01*
X137523069Y-117436757D01*
X137490200Y-117602000D01*
X137490200Y-119963142D01*
X136600671Y-120852671D01*
X136507069Y-120992757D01*
X136474200Y-121158000D01*
X136474200Y-122906024D01*
X136324946Y-123055018D01*
X136220319Y-123306987D01*
X136220081Y-123579816D01*
X136324268Y-123831967D01*
X136517018Y-124025054D01*
X136768987Y-124129681D01*
X137041816Y-124129919D01*
X137236200Y-124049600D01*
X137236200Y-124281142D01*
X137235077Y-124282264D01*
X137024184Y-124282081D01*
X136772033Y-124386268D01*
X136578946Y-124579018D01*
X136474319Y-124830987D01*
X136474081Y-125103816D01*
X136578268Y-125355967D01*
X136771018Y-125549054D01*
X137022987Y-125653681D01*
X137295816Y-125653919D01*
X137547967Y-125549732D01*
X137617200Y-125480619D01*
X137617200Y-126390400D01*
X133273919Y-126390400D01*
X133273919Y-112386184D01*
X133169732Y-112134033D01*
X133019800Y-111983838D01*
X133019800Y-109757975D01*
X133169054Y-109608982D01*
X133273681Y-109357013D01*
X133273919Y-109084184D01*
X133169732Y-108832033D01*
X132976982Y-108638946D01*
X132725013Y-108534319D01*
X132452184Y-108534081D01*
X132200033Y-108638268D01*
X132006946Y-108831018D01*
X132003919Y-108838307D01*
X132003919Y-105528184D01*
X131899732Y-105276033D01*
X131706982Y-105082946D01*
X131455013Y-104978319D01*
X131182184Y-104978081D01*
X130930033Y-105082268D01*
X130736946Y-105275018D01*
X130632319Y-105526987D01*
X130632081Y-105799816D01*
X130736268Y-106051967D01*
X130886200Y-106202161D01*
X130886200Y-106202815D01*
X130886200Y-113867142D01*
X130606800Y-114146542D01*
X130606800Y-113030001D01*
X130606799Y-113029995D01*
X130606799Y-111124999D01*
X130573930Y-110959756D01*
X130480328Y-110819670D01*
X130226328Y-110565670D01*
X130225735Y-110565077D01*
X130225919Y-110354184D01*
X130121732Y-110102033D01*
X129928982Y-109908946D01*
X129784818Y-109849084D01*
X129808862Y-109825083D01*
X129971615Y-109433131D01*
X129971985Y-109008731D01*
X129971985Y-106468731D01*
X129971985Y-103928731D01*
X129971985Y-101388731D01*
X129809916Y-100996496D01*
X129510083Y-100696138D01*
X129118131Y-100533385D01*
X128693731Y-100533015D01*
X128301496Y-100695084D01*
X128001138Y-100994917D01*
X127838385Y-101386869D01*
X127838015Y-101811269D01*
X128000084Y-102203504D01*
X128299917Y-102503862D01*
X128691869Y-102666615D01*
X129116269Y-102666985D01*
X129508504Y-102504916D01*
X129808862Y-102205083D01*
X129971615Y-101813131D01*
X129971985Y-101388731D01*
X129971985Y-103928731D01*
X129809916Y-103536496D01*
X129510083Y-103236138D01*
X129118131Y-103073385D01*
X128693731Y-103073015D01*
X128301496Y-103235084D01*
X128001138Y-103534917D01*
X127838385Y-103926869D01*
X127838015Y-104351269D01*
X128000084Y-104743504D01*
X128299917Y-105043862D01*
X128691869Y-105206615D01*
X129116269Y-105206985D01*
X129508504Y-105044916D01*
X129808862Y-104745083D01*
X129971615Y-104353131D01*
X129971985Y-103928731D01*
X129971985Y-106468731D01*
X129809916Y-106076496D01*
X129510083Y-105776138D01*
X129118131Y-105613385D01*
X128693731Y-105613015D01*
X128301496Y-105775084D01*
X128001138Y-106074917D01*
X127838385Y-106466869D01*
X127838015Y-106891269D01*
X128000084Y-107283504D01*
X128299917Y-107583862D01*
X128691869Y-107746615D01*
X129116269Y-107746985D01*
X129508504Y-107584916D01*
X129808862Y-107285083D01*
X129971615Y-106893131D01*
X129971985Y-106468731D01*
X129971985Y-109008731D01*
X129809916Y-108616496D01*
X129510083Y-108316138D01*
X129118131Y-108153385D01*
X128693731Y-108153015D01*
X128301496Y-108315084D01*
X128001138Y-108614917D01*
X127838385Y-109006869D01*
X127838015Y-109431269D01*
X128000084Y-109823504D01*
X128299917Y-110123862D01*
X128691869Y-110286615D01*
X128881810Y-110286780D01*
X128854319Y-110352987D01*
X128854081Y-110625816D01*
X128881914Y-110693179D01*
X128693731Y-110693015D01*
X128301496Y-110855084D01*
X128001138Y-111154917D01*
X127838385Y-111546869D01*
X127838015Y-111971269D01*
X128000084Y-112363504D01*
X128299917Y-112663862D01*
X128691869Y-112826615D01*
X129116269Y-112826985D01*
X129508504Y-112664916D01*
X129743199Y-112430631D01*
X129743199Y-112851143D01*
X129289710Y-113304631D01*
X129118131Y-113233385D01*
X128693731Y-113233015D01*
X128301496Y-113395084D01*
X128001138Y-113694917D01*
X127838385Y-114086869D01*
X127838015Y-114511269D01*
X128000084Y-114903504D01*
X128299917Y-115203862D01*
X128691869Y-115366615D01*
X129116269Y-115366985D01*
X129508504Y-115204916D01*
X129808862Y-114905083D01*
X129971615Y-114513131D01*
X129971985Y-114088731D01*
X129900334Y-113915323D01*
X130480328Y-113335330D01*
X130573930Y-113195244D01*
X130573930Y-113195243D01*
X130579383Y-113167827D01*
X130606799Y-113030001D01*
X130606800Y-113030001D01*
X130606800Y-114146542D01*
X130250671Y-114502671D01*
X130157069Y-114642757D01*
X130124200Y-114808000D01*
X130124200Y-120090142D01*
X129971985Y-120242357D01*
X129971985Y-119168731D01*
X129971985Y-116628731D01*
X129809916Y-116236496D01*
X129510083Y-115936138D01*
X129118131Y-115773385D01*
X128693731Y-115773015D01*
X128301496Y-115935084D01*
X128001138Y-116234917D01*
X127838385Y-116626869D01*
X127838015Y-117051269D01*
X128000084Y-117443504D01*
X128299917Y-117743862D01*
X128691869Y-117906615D01*
X129116269Y-117906985D01*
X129508504Y-117744916D01*
X129808862Y-117445083D01*
X129971615Y-117053131D01*
X129971985Y-116628731D01*
X129971985Y-119168731D01*
X129809916Y-118776496D01*
X129510083Y-118476138D01*
X129118131Y-118313385D01*
X128693731Y-118313015D01*
X128301496Y-118475084D01*
X128001138Y-118774917D01*
X127838385Y-119166869D01*
X127838015Y-119591269D01*
X128000084Y-119983504D01*
X128299917Y-120283862D01*
X128691869Y-120446615D01*
X129116269Y-120446985D01*
X129508504Y-120284916D01*
X129808862Y-119985083D01*
X129971615Y-119593131D01*
X129971985Y-119168731D01*
X129971985Y-120242357D01*
X129289711Y-120924631D01*
X129118131Y-120853385D01*
X128693731Y-120853015D01*
X128301496Y-121015084D01*
X128001138Y-121314917D01*
X127838385Y-121706869D01*
X127838015Y-122131269D01*
X128000084Y-122523504D01*
X128299917Y-122823862D01*
X128691869Y-122986615D01*
X129116269Y-122986985D01*
X129508504Y-122824916D01*
X129808862Y-122525083D01*
X129971615Y-122133131D01*
X129971985Y-121708731D01*
X129900334Y-121535323D01*
X130861325Y-120574331D01*
X130861329Y-120574329D01*
X130861329Y-120574328D01*
X130923872Y-120480726D01*
X130954931Y-120434243D01*
X130954932Y-120434242D01*
X130987800Y-120269000D01*
X130987801Y-120269000D01*
X130987800Y-120268994D01*
X130987800Y-114986858D01*
X131623329Y-114351329D01*
X131716931Y-114211243D01*
X131716931Y-114211242D01*
X131722384Y-114183826D01*
X131749800Y-114046000D01*
X131749801Y-114046000D01*
X131749800Y-114045994D01*
X131749800Y-106202815D01*
X131749800Y-106201975D01*
X131899054Y-106052982D01*
X132003681Y-105801013D01*
X132003919Y-105528184D01*
X132003919Y-108838307D01*
X131902319Y-109082987D01*
X131902081Y-109355816D01*
X132006268Y-109607967D01*
X132156200Y-109758161D01*
X132156200Y-111984024D01*
X132006946Y-112133018D01*
X131902319Y-112384987D01*
X131902081Y-112657816D01*
X132006268Y-112909967D01*
X132199018Y-113103054D01*
X132450987Y-113207681D01*
X132723816Y-113207919D01*
X132975967Y-113103732D01*
X133169054Y-112910982D01*
X133273681Y-112659013D01*
X133273919Y-112386184D01*
X133273919Y-126390400D01*
X129975042Y-126390400D01*
X129975042Y-124264805D01*
X129818892Y-123870175D01*
X129799658Y-123841390D01*
X129637973Y-123762948D01*
X129602052Y-123798869D01*
X129602052Y-123727027D01*
X129523610Y-123565342D01*
X129134151Y-123396712D01*
X128709805Y-123389958D01*
X128315175Y-123546108D01*
X128286390Y-123565342D01*
X128207948Y-123727027D01*
X128905000Y-124424079D01*
X129602052Y-123727027D01*
X129602052Y-123798869D01*
X128940921Y-124460000D01*
X129637973Y-125157052D01*
X129799658Y-125078610D01*
X129968288Y-124689151D01*
X129975042Y-124264805D01*
X129975042Y-126390400D01*
X129602052Y-126390400D01*
X129602052Y-125192973D01*
X128905000Y-124495921D01*
X128869079Y-124531842D01*
X128869079Y-124460000D01*
X128172027Y-123762948D01*
X128010342Y-123841390D01*
X127841712Y-124230849D01*
X127834958Y-124655195D01*
X127991108Y-125049825D01*
X128010342Y-125078610D01*
X128172027Y-125157052D01*
X128869079Y-124460000D01*
X128869079Y-124531842D01*
X128207948Y-125192973D01*
X128286390Y-125354658D01*
X128675849Y-125523288D01*
X129100195Y-125530042D01*
X129494825Y-125373892D01*
X129523610Y-125354658D01*
X129602052Y-125192973D01*
X129602052Y-126390400D01*
X127609600Y-126390400D01*
X127609600Y-99669600D01*
X149843513Y-99669600D01*
X150583021Y-99916103D01*
X151069816Y-100159500D01*
X151300500Y-100390184D01*
X151543897Y-100876979D01*
X151790400Y-101616487D01*
X151790400Y-108407200D01*
M02*
