%FSLAX46Y46*%
G04 Gerber Fmt 4.6, Leading zero omitted, Abs format (unit mm)*
G04 Created by KiCad (PCBNEW (2014-08-29 BZR 5106)-product) date Mon 20 Oct 2014 02:43:02 PM PDT*
%MOMM*%
G01*
G04 APERTURE LIST*
%ADD10C,0.100000*%
%ADD11R,0.552400X0.752400*%
%ADD12R,0.949960X0.949960*%
%ADD13R,2.252400X1.402400*%
%ADD14R,0.752400X0.652400*%
%ADD15R,0.752400X0.552400*%
%ADD16R,0.502400X1.152400*%
%ADD17R,0.652400X0.752400*%
%ADD18R,1.152400X1.402400*%
%ADD19R,0.902400X0.952400*%
%ADD20R,0.751840X0.401320*%
%ADD21R,0.401320X0.751840*%
%ADD22R,3.451860X3.451860*%
%ADD23R,1.302400X1.552400*%
%ADD24C,1.676400*%
G04 APERTURE END LIST*
D10*
D11*
X138118000Y-103251000D03*
X137218000Y-103251000D03*
D12*
X144270512Y-106071266D03*
X144270512Y-104572666D03*
D13*
X148590000Y-117910000D03*
X148590000Y-124660000D03*
D10*
G36*
X145322090Y-111622749D02*
X145545224Y-111009693D01*
X146252248Y-111267029D01*
X146029114Y-111880085D01*
X145322090Y-111622749D01*
X145322090Y-111622749D01*
G37*
G36*
X146355752Y-111998971D02*
X146578886Y-111385915D01*
X147285910Y-111643251D01*
X147062776Y-112256307D01*
X146355752Y-111998971D01*
X146355752Y-111998971D01*
G37*
G36*
X147530736Y-112899581D02*
X147069419Y-112438264D01*
X147601446Y-111906237D01*
X148062763Y-112367554D01*
X147530736Y-112899581D01*
X147530736Y-112899581D01*
G37*
G36*
X148308554Y-112121763D02*
X147847237Y-111660446D01*
X148379264Y-111128419D01*
X148840581Y-111589736D01*
X148308554Y-112121763D01*
X148308554Y-112121763D01*
G37*
D14*
X148675000Y-115316000D03*
X149775000Y-115316000D03*
D12*
X142746512Y-106071266D03*
X142746512Y-104572666D03*
X135877300Y-123444000D03*
X134378700Y-123444000D03*
X135877300Y-124968000D03*
X134378700Y-124968000D03*
D10*
G36*
X148959307Y-114423776D02*
X148346251Y-114646910D01*
X148088915Y-113939886D01*
X148701971Y-113716752D01*
X148959307Y-114423776D01*
X148959307Y-114423776D01*
G37*
G36*
X148583085Y-113390114D02*
X147970029Y-113613248D01*
X147712693Y-112906224D01*
X148325749Y-112683090D01*
X148583085Y-113390114D01*
X148583085Y-113390114D01*
G37*
D15*
X144270512Y-103231966D03*
X144270512Y-102331966D03*
X142746512Y-103231966D03*
X142746512Y-102331966D03*
D11*
X133038000Y-123444000D03*
X132138000Y-123444000D03*
X133038000Y-124968000D03*
X132138000Y-124968000D03*
D16*
X144668000Y-111368000D03*
X144018000Y-111368000D03*
X143368000Y-111368000D03*
X143368000Y-113168000D03*
X144018000Y-113168000D03*
X144668000Y-113168000D03*
D17*
X134747000Y-103166000D03*
X134747000Y-102066000D03*
D18*
X136922000Y-106172000D03*
X138922000Y-106172000D03*
D14*
X136991000Y-108585000D03*
X138091000Y-108585000D03*
D17*
X137160000Y-119168000D03*
X137160000Y-118068000D03*
D14*
X136991000Y-107569000D03*
X138091000Y-107569000D03*
D18*
X138700000Y-116713000D03*
X140700000Y-116713000D03*
D14*
X132800000Y-115062000D03*
X133900000Y-115062000D03*
X138515000Y-115570000D03*
X139615000Y-115570000D03*
D17*
X135509000Y-108627000D03*
X135509000Y-107527000D03*
X137668000Y-115909000D03*
X137668000Y-117009000D03*
D19*
X138684000Y-119876000D03*
X138684000Y-118376000D03*
D11*
X132138000Y-103124000D03*
X133038000Y-103124000D03*
D15*
X133858000Y-104082000D03*
X133858000Y-103182000D03*
X133858000Y-103193000D03*
X133858000Y-102293000D03*
D11*
X138118000Y-104267000D03*
X137218000Y-104267000D03*
D15*
X133858000Y-108654000D03*
X133858000Y-107754000D03*
D20*
X140319760Y-114015520D03*
X140319760Y-113515140D03*
X140319760Y-113014760D03*
X140319760Y-112514380D03*
X140319760Y-112016540D03*
X140319760Y-111516160D03*
X140319760Y-111015780D03*
X140319760Y-110515400D03*
D21*
X137673080Y-109865160D03*
X137175240Y-109865160D03*
X136674860Y-109865160D03*
X136174480Y-109865160D03*
D22*
X137922000Y-112268000D03*
D21*
X139672060Y-109865160D03*
X139171680Y-109865160D03*
X138671300Y-109865160D03*
X138173460Y-109865160D03*
D20*
X135524240Y-110520480D03*
X135521700Y-111020860D03*
X135521700Y-111518700D03*
X135521700Y-112019080D03*
X135521700Y-112519460D03*
X135521700Y-113019840D03*
X135521700Y-113520220D03*
X135521700Y-114020600D03*
D21*
X136171940Y-114668300D03*
X136672320Y-114668300D03*
X137172700Y-114668300D03*
X137670540Y-114668300D03*
X138170920Y-114668300D03*
X138671300Y-114668300D03*
X139171680Y-114668300D03*
X139672060Y-114668300D03*
D23*
X135420000Y-118702000D03*
X135420000Y-116502000D03*
X133820000Y-116502000D03*
X133820000Y-118702000D03*
D11*
X137472000Y-125984000D03*
X138372000Y-125984000D03*
D15*
X150114000Y-108262000D03*
X150114000Y-109162000D03*
D24*
X128905000Y-124460000D03*
X128905000Y-121920000D03*
X128905000Y-119380000D03*
X128905000Y-116840000D03*
X128905000Y-114300000D03*
X128905000Y-111760000D03*
X128905000Y-109220000D03*
X128905000Y-106680000D03*
X128905000Y-104140000D03*
X128905000Y-101600000D03*
M02*
