%FSLAX46Y46*%
G04 Gerber Fmt 4.6, Leading zero omitted, Abs format (unit mm)*
G04 Created by KiCad (PCBNEW (2014-08-29 BZR 5106)-product) date Mon 20 Oct 2014 02:43:02 PM PDT*
%MOMM*%
G01*
G04 APERTURE LIST*
%ADD10C,0.100000*%
%ADD11C,1.524000*%
%ADD12C,0.762000*%
%ADD13C,0.254000*%
%ADD14C,0.203200*%
G04 APERTURE END LIST*
D10*
D11*
X128905000Y-124460000D03*
X128905000Y-121920000D03*
X128905000Y-119380000D03*
X128905000Y-116840000D03*
X128905000Y-114300000D03*
X128905000Y-111760000D03*
X128905000Y-109220000D03*
X128905000Y-106680000D03*
X128905000Y-104140000D03*
X128905000Y-101600000D03*
D12*
X133985000Y-110363000D03*
X133858000Y-112496600D03*
X135432800Y-109550200D03*
X145288000Y-102362000D03*
X141732000Y-102362000D03*
X149098000Y-108077000D03*
X136779000Y-120142000D03*
X139954000Y-106172000D03*
X138938000Y-104902000D03*
X138938000Y-107442000D03*
X135382000Y-106426000D03*
X133858000Y-106934000D03*
X132842000Y-107696000D03*
X132842000Y-102108000D03*
X134874000Y-101092000D03*
X135636000Y-102108000D03*
X132588000Y-116332000D03*
X131572000Y-115062000D03*
X132080000Y-125984000D03*
X144018000Y-107696000D03*
X150114000Y-107442000D03*
X151257000Y-108077000D03*
X147574000Y-108077000D03*
X145542000Y-108077000D03*
X148082000Y-104140000D03*
X149860000Y-101600000D03*
X132588000Y-118618000D03*
X135382000Y-104648000D03*
X132588000Y-104394000D03*
X133858000Y-101473000D03*
X142748000Y-101473000D03*
X144272000Y-101473000D03*
X141351000Y-110363000D03*
X131318000Y-105664000D03*
X149088499Y-109159511D03*
X147701000Y-115443000D03*
X151511000Y-115443000D03*
X151511000Y-109093000D03*
X150114000Y-110109000D03*
X151511000Y-113411000D03*
X151511000Y-111125000D03*
X145669000Y-112649000D03*
X147066000Y-113538000D03*
X138430000Y-124968000D03*
X138762114Y-121363114D03*
X139954000Y-119888000D03*
X140716000Y-117983000D03*
X141859000Y-116713000D03*
X141935210Y-114808000D03*
X144399000Y-114554000D03*
X144018000Y-110236000D03*
X141224000Y-123952000D03*
X141986000Y-120523000D03*
X138430000Y-123063000D03*
X141732000Y-126111000D03*
X144399000Y-126111000D03*
X144399000Y-124460000D03*
X144399000Y-122809000D03*
X144399000Y-121031000D03*
X144399000Y-119253000D03*
X144399000Y-117729000D03*
X145034000Y-116078000D03*
X146431000Y-115443000D03*
X149733000Y-114427000D03*
X148971000Y-112268000D03*
X148971000Y-110998000D03*
X147828000Y-110998000D03*
X146558000Y-109093000D03*
X139192000Y-126111000D03*
X137922000Y-112268000D03*
X138938000Y-111252000D03*
X138938000Y-113284000D03*
X136906000Y-111252000D03*
X136906000Y-113284000D03*
X142240000Y-113284000D03*
X140462000Y-115062000D03*
X136906000Y-123444000D03*
X137160000Y-124968000D03*
X141199833Y-113824022D03*
X129540000Y-110490000D03*
X132588000Y-109220000D03*
X132588000Y-112522000D03*
X139446000Y-103124000D03*
X142113000Y-108331000D03*
D13*
X133858000Y-110490000D02*
X133985000Y-110363000D01*
X133858000Y-112496600D02*
X133858000Y-110490000D01*
X133985000Y-109770989D02*
X133985000Y-109824185D01*
X133985000Y-109824185D02*
X133985000Y-110363000D01*
X133858000Y-109643989D02*
X133985000Y-109770989D01*
X133350000Y-113030000D02*
X133350000Y-113004600D01*
X133477001Y-112877599D02*
X133858000Y-112496600D01*
X133350000Y-113004600D02*
X133477001Y-112877599D01*
X133858000Y-112776000D02*
X133858000Y-112496600D01*
X131572000Y-115062000D02*
X133858000Y-112776000D01*
X133858000Y-111983185D02*
X133858000Y-112496600D01*
X134893985Y-109550200D02*
X135432800Y-109550200D01*
X133951789Y-109550200D02*
X134893985Y-109550200D01*
X133858000Y-109643989D02*
X133951789Y-109550200D01*
X144907001Y-102742999D02*
X145288000Y-102362000D01*
X144018000Y-103632000D02*
X144907001Y-102742999D01*
X144018000Y-107696000D02*
X144018000Y-103632000D01*
X145161000Y-102900815D02*
X145288000Y-102773815D01*
X145288000Y-102773815D02*
X145288000Y-102362000D01*
X145161000Y-102362000D02*
X145288000Y-102362000D01*
X144272000Y-101473000D02*
X145161000Y-102362000D01*
X141732000Y-101823185D02*
X141732000Y-102362000D01*
X141732000Y-101600000D02*
X141732000Y-101823185D01*
X141859000Y-101473000D02*
X141732000Y-101600000D01*
X147574000Y-108077000D02*
X149098000Y-108077000D01*
X136398001Y-120522999D02*
X136779000Y-120142000D01*
X131318000Y-120735146D02*
X136185854Y-120735146D01*
X136185854Y-120735146D02*
X136398001Y-120522999D01*
X139954000Y-105918000D02*
X138938000Y-104902000D01*
X139954000Y-106172000D02*
X139954000Y-105918000D01*
X138938000Y-107442000D02*
X137922000Y-106426000D01*
X137922000Y-106426000D02*
X135382000Y-106426000D01*
X134874000Y-106934000D02*
X135382000Y-106426000D01*
X133858000Y-106934000D02*
X134874000Y-106934000D01*
X133222999Y-102488999D02*
X132842000Y-102108000D01*
X133222999Y-107315001D02*
X133222999Y-102488999D01*
X132842000Y-107696000D02*
X133222999Y-107315001D01*
X131572000Y-115062000D02*
X131572000Y-116332000D01*
X131572000Y-116332000D02*
X132588000Y-116332000D01*
X132080000Y-125984000D02*
X131318000Y-125984000D01*
X130055072Y-124387558D02*
X131318000Y-124387558D01*
X129982630Y-124460000D02*
X130055072Y-124387558D01*
X128905000Y-124460000D02*
X129982630Y-124460000D01*
X131318000Y-125984000D02*
X131318000Y-124387558D01*
X131318000Y-124387558D02*
X131318000Y-120735146D01*
X133858000Y-108712000D02*
X132842000Y-107696000D01*
X133858000Y-109643989D02*
X133858000Y-108712000D01*
X135636000Y-102108000D02*
X136652000Y-102108000D01*
X137414000Y-101346000D02*
X141732000Y-101346000D01*
X136652000Y-102108000D02*
X137414000Y-101346000D01*
X135636000Y-101092000D02*
X135636000Y-102108000D01*
X134874000Y-101092000D02*
X135636000Y-101092000D01*
X145542000Y-106680000D02*
X148082000Y-104140000D01*
X145542000Y-108077000D02*
X145542000Y-106680000D01*
X148082000Y-103378000D02*
X148082000Y-104140000D01*
X149860000Y-101600000D02*
X148082000Y-103378000D01*
X132588000Y-116332000D02*
X132588000Y-118618000D01*
X132207001Y-118998999D02*
X132588000Y-118618000D01*
X131318000Y-120735146D02*
X131318000Y-119888000D01*
X131318000Y-119888000D02*
X132207001Y-118998999D01*
X135636000Y-104394000D02*
X135382000Y-104648000D01*
X135636000Y-102108000D02*
X135636000Y-104394000D01*
X132842000Y-104140000D02*
X132588000Y-104394000D01*
X132842000Y-102108000D02*
X132842000Y-104140000D01*
X134874000Y-101092000D02*
X134238999Y-101092001D01*
X134238999Y-101092001D02*
X133858000Y-101473000D01*
X141859000Y-101473000D02*
X142209185Y-101473000D01*
X142209185Y-101473000D02*
X142748000Y-101473000D01*
X142748000Y-101473000D02*
X144272000Y-101473000D01*
X141732000Y-101346000D02*
X141859000Y-101473000D01*
X138938000Y-107950000D02*
X138938000Y-107442000D01*
X141351000Y-110363000D02*
X138938000Y-107950000D01*
X131318000Y-106202815D02*
X131318000Y-105664000D01*
X131318000Y-114046000D02*
X131318000Y-106202815D01*
X130556000Y-114808000D02*
X131318000Y-114046000D01*
X130556000Y-120269000D02*
X130556000Y-114808000D01*
X128905000Y-121920000D02*
X130556000Y-120269000D01*
X150481133Y-110552145D02*
X149469498Y-109540510D01*
X149469498Y-109540510D02*
X149088499Y-109159511D01*
X150481133Y-110857133D02*
X150481133Y-110552145D01*
X146431000Y-115443000D02*
X147701000Y-115443000D01*
X151511000Y-112141000D02*
X151511000Y-111887000D01*
X151511000Y-112141000D02*
X151511000Y-111506000D01*
X150494999Y-110489999D02*
X150114000Y-110109000D01*
X151511000Y-112141000D02*
X151511000Y-113411000D01*
X151511000Y-109093000D02*
X151511000Y-111125000D01*
X151511000Y-111887000D02*
X151511000Y-111125000D01*
X150481133Y-110848723D02*
X150667428Y-110662428D01*
X150481133Y-110857133D02*
X150481133Y-110848723D01*
X150667428Y-110662428D02*
X150494999Y-110489999D01*
X151511000Y-111887000D02*
X150481133Y-110857133D01*
X151511000Y-111506000D02*
X150667428Y-110662428D01*
X146177000Y-112649000D02*
X147066000Y-113538000D01*
X145669000Y-112649000D02*
X146177000Y-112649000D01*
X139954000Y-118745000D02*
X140716000Y-117983000D01*
X139954000Y-119888000D02*
X139954000Y-118745000D01*
X141859000Y-114884210D02*
X141935210Y-114808000D01*
X141859000Y-116713000D02*
X141859000Y-114884210D01*
X141986000Y-122651185D02*
X141986000Y-120523000D01*
X141224000Y-123413185D02*
X141986000Y-122651185D01*
X141224000Y-123952000D02*
X141224000Y-123413185D01*
X138762114Y-122730886D02*
X138430000Y-123063000D01*
X138762114Y-121363114D02*
X138762114Y-122730886D01*
X141732000Y-126111000D02*
X144399000Y-126111000D01*
X144399000Y-124460000D02*
X144399000Y-122809000D01*
X144399000Y-121031000D02*
X144399000Y-119253000D01*
X144399000Y-117729000D02*
X144399000Y-116713000D01*
X144399000Y-116713000D02*
X144653001Y-116458999D01*
X144653001Y-116458999D02*
X145034000Y-116078000D01*
X151511000Y-115443000D02*
X150622000Y-115443000D01*
X148971000Y-112268000D02*
X148971000Y-110998000D01*
X150114000Y-110109000D02*
X149225000Y-110998000D01*
X149225000Y-110998000D02*
X148971000Y-110998000D01*
X148971000Y-110998000D02*
X147828000Y-110998000D01*
X144018000Y-110236000D02*
X145415000Y-110236000D01*
X146177001Y-109473999D02*
X146558000Y-109093000D01*
X145415000Y-110236000D02*
X146177001Y-109473999D01*
X138430000Y-124968000D02*
X139192000Y-125730000D01*
X139192000Y-125730000D02*
X139192000Y-126111000D01*
X138938000Y-111252000D02*
X136906000Y-111252000D01*
X137286999Y-112903001D02*
X136906000Y-113284000D01*
X137414000Y-112776000D02*
X137286999Y-112903001D01*
X138206815Y-112522000D02*
X137952815Y-112776000D01*
X138529604Y-112875604D02*
X138529604Y-112844789D01*
X138529604Y-112844789D02*
X138206815Y-112522000D01*
X138430000Y-112776000D02*
X137698815Y-112776000D01*
X137952815Y-112776000D02*
X137698815Y-112776000D01*
X138938000Y-113284000D02*
X138430000Y-112776000D01*
X138938000Y-111252000D02*
X136906000Y-113284000D01*
X137698815Y-112776000D02*
X137414000Y-112776000D01*
X143510000Y-114554000D02*
X142620999Y-113664999D01*
X138206815Y-112522000D02*
X141478000Y-112522000D01*
X141478000Y-112522000D02*
X141859001Y-112903001D01*
X141859001Y-112903001D02*
X142240000Y-113284000D01*
X144399000Y-114554000D02*
X143510000Y-114554000D01*
X142620999Y-113664999D02*
X142240000Y-113284000D01*
X137922000Y-117602000D02*
X140462000Y-115062000D01*
X137922000Y-120142000D02*
X137922000Y-117602000D01*
X136906000Y-121158000D02*
X137922000Y-120142000D01*
X136906000Y-123444000D02*
X136906000Y-121158000D01*
X141224000Y-115023447D02*
X141224000Y-114330815D01*
X141224000Y-115591646D02*
X141224000Y-114330815D01*
X138430000Y-118385646D02*
X141224000Y-115591646D01*
X138430000Y-120689426D02*
X138430000Y-118385646D01*
X137668000Y-121451426D02*
X138430000Y-120689426D01*
X137668000Y-124460000D02*
X137668000Y-121451426D01*
X137160000Y-124968000D02*
X137668000Y-124460000D01*
X141199833Y-114306648D02*
X141199833Y-113824022D01*
X141224000Y-114330815D02*
X141199833Y-114306648D01*
X129920999Y-110870999D02*
X129540000Y-110490000D01*
X128905000Y-114300000D02*
X130174999Y-113030001D01*
X130174999Y-113030001D02*
X130174999Y-111124999D01*
X130174999Y-111124999D02*
X129920999Y-110870999D01*
X132588000Y-112237185D02*
X132588000Y-109220000D01*
X132588000Y-109220000D02*
X132588000Y-112522000D01*
X139446000Y-103124000D02*
X142113000Y-105791000D01*
X142113000Y-105791000D02*
X142113000Y-107792185D01*
X142113000Y-107792185D02*
X142113000Y-108331000D01*
D14*
G36*
X151790400Y-115722400D02*
X147574000Y-115722400D01*
X146545492Y-115722400D01*
X145490057Y-115986259D01*
X144942259Y-116534057D01*
X144678400Y-117589492D01*
X144678400Y-126390400D01*
X138023600Y-126390400D01*
X138023600Y-124734933D01*
X138023600Y-124734932D01*
X138090398Y-124634963D01*
X138125199Y-124460000D01*
X138125200Y-124460000D01*
X138125200Y-121640804D01*
X138753289Y-121012715D01*
X138852398Y-120864389D01*
X138887200Y-120689426D01*
X138887200Y-118575024D01*
X141547289Y-115914935D01*
X141646398Y-115766609D01*
X141681200Y-115591646D01*
X141681200Y-115023447D01*
X141681200Y-114348405D01*
X141802407Y-114227410D01*
X141910909Y-113966109D01*
X141911156Y-113683176D01*
X141803110Y-113421686D01*
X141603221Y-113221448D01*
X141341920Y-113112946D01*
X141058987Y-113112699D01*
X140797497Y-113220745D01*
X140597259Y-113420634D01*
X140488757Y-113681935D01*
X140488510Y-113964868D01*
X140596556Y-114226358D01*
X140759038Y-114389124D01*
X140764706Y-114417619D01*
X140604087Y-114350924D01*
X140321154Y-114350677D01*
X140059664Y-114458723D01*
X139859426Y-114658612D01*
X139750924Y-114919913D01*
X139750743Y-115126677D01*
X138023600Y-116853821D01*
X138023600Y-113944400D01*
X136245600Y-113944400D01*
X136245600Y-110591600D01*
X139598400Y-110591600D01*
X139598400Y-111353600D01*
X141774084Y-111353600D01*
X144314084Y-108813600D01*
X151790400Y-108813600D01*
X151790400Y-115722400D01*
X151790400Y-115722400D01*
G37*
X151790400Y-115722400D02*
X147574000Y-115722400D01*
X146545492Y-115722400D01*
X145490057Y-115986259D01*
X144942259Y-116534057D01*
X144678400Y-117589492D01*
X144678400Y-126390400D01*
X138023600Y-126390400D01*
X138023600Y-124734933D01*
X138023600Y-124734932D01*
X138090398Y-124634963D01*
X138125199Y-124460000D01*
X138125200Y-124460000D01*
X138125200Y-121640804D01*
X138753289Y-121012715D01*
X138852398Y-120864389D01*
X138887200Y-120689426D01*
X138887200Y-118575024D01*
X141547289Y-115914935D01*
X141646398Y-115766609D01*
X141681200Y-115591646D01*
X141681200Y-115023447D01*
X141681200Y-114348405D01*
X141802407Y-114227410D01*
X141910909Y-113966109D01*
X141911156Y-113683176D01*
X141803110Y-113421686D01*
X141603221Y-113221448D01*
X141341920Y-113112946D01*
X141058987Y-113112699D01*
X140797497Y-113220745D01*
X140597259Y-113420634D01*
X140488757Y-113681935D01*
X140488510Y-113964868D01*
X140596556Y-114226358D01*
X140759038Y-114389124D01*
X140764706Y-114417619D01*
X140604087Y-114350924D01*
X140321154Y-114350677D01*
X140059664Y-114458723D01*
X139859426Y-114658612D01*
X139750924Y-114919913D01*
X139750743Y-115126677D01*
X138023600Y-116853821D01*
X138023600Y-113944400D01*
X136245600Y-113944400D01*
X136245600Y-110591600D01*
X139598400Y-110591600D01*
X139598400Y-111353600D01*
X141774084Y-111353600D01*
X144314084Y-108813600D01*
X151790400Y-108813600D01*
X151790400Y-115722400D01*
G36*
X151790400Y-108381800D02*
X151511047Y-108381800D01*
X151370154Y-108381677D01*
X151369856Y-108381800D01*
X146558047Y-108381800D01*
X146417154Y-108381677D01*
X146416856Y-108381800D01*
X144135227Y-108381800D01*
X142824323Y-109692704D01*
X142824323Y-108190154D01*
X142716277Y-107928664D01*
X142570200Y-107782331D01*
X142570200Y-105791000D01*
X142535398Y-105616037D01*
X142436290Y-105467711D01*
X140157143Y-103188565D01*
X140157323Y-102983154D01*
X140049277Y-102721664D01*
X139849388Y-102521426D01*
X139588087Y-102412924D01*
X139305154Y-102412677D01*
X139043664Y-102520723D01*
X138843426Y-102720612D01*
X138734924Y-102981913D01*
X138734677Y-103264846D01*
X138842723Y-103526336D01*
X139042612Y-103726574D01*
X139303913Y-103835076D01*
X139510678Y-103835256D01*
X141655800Y-105980378D01*
X141655800Y-107782491D01*
X141510426Y-107927612D01*
X141401924Y-108188913D01*
X141401677Y-108471846D01*
X141509723Y-108733336D01*
X141709612Y-108933574D01*
X141970913Y-109042076D01*
X142253846Y-109042323D01*
X142515336Y-108934277D01*
X142715574Y-108734388D01*
X142824076Y-108473087D01*
X142824323Y-108190154D01*
X142824323Y-109692704D01*
X141595227Y-110921800D01*
X140030200Y-110921800D01*
X140030200Y-110159800D01*
X135813800Y-110159800D01*
X135813800Y-114376200D01*
X137591800Y-114376200D01*
X137591800Y-117289053D01*
X137499602Y-117427037D01*
X137464800Y-117602000D01*
X137464800Y-119952622D01*
X136582711Y-120834711D01*
X136483602Y-120983037D01*
X136448800Y-121158000D01*
X136448800Y-122895491D01*
X136303426Y-123040612D01*
X136194924Y-123301913D01*
X136194677Y-123584846D01*
X136302723Y-123846336D01*
X136502612Y-124046574D01*
X136763913Y-124155076D01*
X137046846Y-124155323D01*
X137210800Y-124087578D01*
X137210800Y-124256844D01*
X137019154Y-124256677D01*
X136757664Y-124364723D01*
X136557426Y-124564612D01*
X136448924Y-124825913D01*
X136448677Y-125108846D01*
X136556723Y-125370336D01*
X136756612Y-125570574D01*
X137017913Y-125679076D01*
X137300846Y-125679323D01*
X137562336Y-125571277D01*
X137591800Y-125541864D01*
X137591800Y-126390400D01*
X133299323Y-126390400D01*
X133299323Y-112381154D01*
X133191277Y-112119664D01*
X133045200Y-111973331D01*
X133045200Y-109768508D01*
X133190574Y-109623388D01*
X133299076Y-109362087D01*
X133299323Y-109079154D01*
X133191277Y-108817664D01*
X132991388Y-108617426D01*
X132730087Y-108508924D01*
X132447154Y-108508677D01*
X132185664Y-108616723D01*
X132029323Y-108772791D01*
X132029323Y-105523154D01*
X131921277Y-105261664D01*
X131721388Y-105061426D01*
X131460087Y-104952924D01*
X131177154Y-104952677D01*
X130915664Y-105060723D01*
X130715426Y-105260612D01*
X130606924Y-105521913D01*
X130606677Y-105804846D01*
X130714723Y-106066336D01*
X130860800Y-106212668D01*
X130860800Y-113856622D01*
X130632199Y-114085223D01*
X130632199Y-113030001D01*
X130632199Y-111124999D01*
X130597397Y-110950036D01*
X130498288Y-110801710D01*
X130251143Y-110554565D01*
X130251323Y-110349154D01*
X130143277Y-110087664D01*
X129943388Y-109887426D01*
X129829665Y-109840204D01*
X129830382Y-109839489D01*
X129997010Y-109438205D01*
X129997389Y-109003701D01*
X129997389Y-106463701D01*
X129997389Y-103923701D01*
X129997389Y-101383701D01*
X129831462Y-100982127D01*
X129524489Y-100674618D01*
X129123205Y-100507990D01*
X128688701Y-100507611D01*
X128287127Y-100673538D01*
X127979618Y-100980511D01*
X127812990Y-101381795D01*
X127812611Y-101816299D01*
X127978538Y-102217873D01*
X128285511Y-102525382D01*
X128686795Y-102692010D01*
X129121299Y-102692389D01*
X129522873Y-102526462D01*
X129830382Y-102219489D01*
X129997010Y-101818205D01*
X129997389Y-101383701D01*
X129997389Y-103923701D01*
X129831462Y-103522127D01*
X129524489Y-103214618D01*
X129123205Y-103047990D01*
X128688701Y-103047611D01*
X128287127Y-103213538D01*
X127979618Y-103520511D01*
X127812990Y-103921795D01*
X127812611Y-104356299D01*
X127978538Y-104757873D01*
X128285511Y-105065382D01*
X128686795Y-105232010D01*
X129121299Y-105232389D01*
X129522873Y-105066462D01*
X129830382Y-104759489D01*
X129997010Y-104358205D01*
X129997389Y-103923701D01*
X129997389Y-106463701D01*
X129831462Y-106062127D01*
X129524489Y-105754618D01*
X129123205Y-105587990D01*
X128688701Y-105587611D01*
X128287127Y-105753538D01*
X127979618Y-106060511D01*
X127812990Y-106461795D01*
X127812611Y-106896299D01*
X127978538Y-107297873D01*
X128285511Y-107605382D01*
X128686795Y-107772010D01*
X129121299Y-107772389D01*
X129522873Y-107606462D01*
X129830382Y-107299489D01*
X129997010Y-106898205D01*
X129997389Y-106463701D01*
X129997389Y-109003701D01*
X129831462Y-108602127D01*
X129524489Y-108294618D01*
X129123205Y-108127990D01*
X128688701Y-108127611D01*
X128287127Y-108293538D01*
X127979618Y-108600511D01*
X127812990Y-109001795D01*
X127812611Y-109436299D01*
X127978538Y-109837873D01*
X128285511Y-110145382D01*
X128686795Y-110312010D01*
X128843775Y-110312146D01*
X128828924Y-110347913D01*
X128828677Y-110630846D01*
X128843924Y-110667746D01*
X128688701Y-110667611D01*
X128287127Y-110833538D01*
X127979618Y-111140511D01*
X127812990Y-111541795D01*
X127812611Y-111976299D01*
X127978538Y-112377873D01*
X128285511Y-112685382D01*
X128686795Y-112852010D01*
X129121299Y-112852389D01*
X129522873Y-112686462D01*
X129717799Y-112491875D01*
X129717799Y-112840623D01*
X129283762Y-113274659D01*
X129123205Y-113207990D01*
X128688701Y-113207611D01*
X128287127Y-113373538D01*
X127979618Y-113680511D01*
X127812990Y-114081795D01*
X127812611Y-114516299D01*
X127978538Y-114917873D01*
X128285511Y-115225382D01*
X128686795Y-115392010D01*
X129121299Y-115392389D01*
X129522873Y-115226462D01*
X129830382Y-114919489D01*
X129997010Y-114518205D01*
X129997389Y-114083701D01*
X129930283Y-113921294D01*
X130498288Y-113353290D01*
X130597397Y-113204964D01*
X130632199Y-113030001D01*
X130632199Y-114085223D01*
X130232711Y-114484711D01*
X130133602Y-114633037D01*
X130098800Y-114808000D01*
X130098800Y-120079621D01*
X129997389Y-120181032D01*
X129997389Y-119163701D01*
X129997389Y-116623701D01*
X129831462Y-116222127D01*
X129524489Y-115914618D01*
X129123205Y-115747990D01*
X128688701Y-115747611D01*
X128287127Y-115913538D01*
X127979618Y-116220511D01*
X127812990Y-116621795D01*
X127812611Y-117056299D01*
X127978538Y-117457873D01*
X128285511Y-117765382D01*
X128686795Y-117932010D01*
X129121299Y-117932389D01*
X129522873Y-117766462D01*
X129830382Y-117459489D01*
X129997010Y-117058205D01*
X129997389Y-116623701D01*
X129997389Y-119163701D01*
X129831462Y-118762127D01*
X129524489Y-118454618D01*
X129123205Y-118287990D01*
X128688701Y-118287611D01*
X128287127Y-118453538D01*
X127979618Y-118760511D01*
X127812990Y-119161795D01*
X127812611Y-119596299D01*
X127978538Y-119997873D01*
X128285511Y-120305382D01*
X128686795Y-120472010D01*
X129121299Y-120472389D01*
X129522873Y-120306462D01*
X129830382Y-119999489D01*
X129997010Y-119598205D01*
X129997389Y-119163701D01*
X129997389Y-120181032D01*
X129283762Y-120894659D01*
X129123205Y-120827990D01*
X128688701Y-120827611D01*
X128287127Y-120993538D01*
X127979618Y-121300511D01*
X127812990Y-121701795D01*
X127812611Y-122136299D01*
X127978538Y-122537873D01*
X128285511Y-122845382D01*
X128686795Y-123012010D01*
X129121299Y-123012389D01*
X129522873Y-122846462D01*
X129830382Y-122539489D01*
X129997010Y-122138205D01*
X129997389Y-121703701D01*
X129930283Y-121541294D01*
X130879289Y-120592289D01*
X130879290Y-120592289D01*
X130978398Y-120443963D01*
X131013200Y-120269000D01*
X131013200Y-114997378D01*
X131641289Y-114369289D01*
X131740398Y-114220963D01*
X131775200Y-114046000D01*
X131775200Y-106212508D01*
X131920574Y-106067388D01*
X132029076Y-105806087D01*
X132029323Y-105523154D01*
X132029323Y-108772791D01*
X131985426Y-108816612D01*
X131876924Y-109077913D01*
X131876677Y-109360846D01*
X131984723Y-109622336D01*
X132130800Y-109768668D01*
X132130800Y-111973491D01*
X131985426Y-112118612D01*
X131876924Y-112379913D01*
X131876677Y-112662846D01*
X131984723Y-112924336D01*
X132184612Y-113124574D01*
X132445913Y-113233076D01*
X132728846Y-113233323D01*
X132990336Y-113125277D01*
X133190574Y-112925388D01*
X133299076Y-112664087D01*
X133299323Y-112381154D01*
X133299323Y-126390400D01*
X130000627Y-126390400D01*
X130000627Y-124260752D01*
X129840978Y-123856641D01*
X129820614Y-123826164D01*
X129651800Y-123749122D01*
X129615878Y-123785043D01*
X129615878Y-123713200D01*
X129538836Y-123544386D01*
X129140198Y-123371524D01*
X128705752Y-123364373D01*
X128301641Y-123524022D01*
X128271164Y-123544386D01*
X128194122Y-123713200D01*
X128905000Y-124424079D01*
X129615878Y-123713200D01*
X129615878Y-123785043D01*
X128940921Y-124460000D01*
X129651800Y-125170878D01*
X129820614Y-125093836D01*
X129993476Y-124695198D01*
X130000627Y-124260752D01*
X130000627Y-126390400D01*
X129615878Y-126390400D01*
X129615878Y-125206800D01*
X128905000Y-124495921D01*
X128869079Y-124531842D01*
X128869079Y-124460000D01*
X128158200Y-123749122D01*
X127989386Y-123826164D01*
X127816524Y-124224802D01*
X127809373Y-124659248D01*
X127969022Y-125063359D01*
X127989386Y-125093836D01*
X128158200Y-125170878D01*
X128869079Y-124460000D01*
X128869079Y-124531842D01*
X128194122Y-125206800D01*
X128271164Y-125375614D01*
X128669802Y-125548476D01*
X129104248Y-125555627D01*
X129508359Y-125395978D01*
X129538836Y-125375614D01*
X129615878Y-125206800D01*
X129615878Y-126390400D01*
X127609600Y-126390400D01*
X127609600Y-99669600D01*
X149843513Y-99669600D01*
X150583021Y-99916103D01*
X151069816Y-100159500D01*
X151300500Y-100390184D01*
X151543897Y-100876979D01*
X151790400Y-101616487D01*
X151790400Y-108381800D01*
X151790400Y-108381800D01*
G37*
X151790400Y-108381800D02*
X151511047Y-108381800D01*
X151370154Y-108381677D01*
X151369856Y-108381800D01*
X146558047Y-108381800D01*
X146417154Y-108381677D01*
X146416856Y-108381800D01*
X144135227Y-108381800D01*
X142824323Y-109692704D01*
X142824323Y-108190154D01*
X142716277Y-107928664D01*
X142570200Y-107782331D01*
X142570200Y-105791000D01*
X142535398Y-105616037D01*
X142436290Y-105467711D01*
X140157143Y-103188565D01*
X140157323Y-102983154D01*
X140049277Y-102721664D01*
X139849388Y-102521426D01*
X139588087Y-102412924D01*
X139305154Y-102412677D01*
X139043664Y-102520723D01*
X138843426Y-102720612D01*
X138734924Y-102981913D01*
X138734677Y-103264846D01*
X138842723Y-103526336D01*
X139042612Y-103726574D01*
X139303913Y-103835076D01*
X139510678Y-103835256D01*
X141655800Y-105980378D01*
X141655800Y-107782491D01*
X141510426Y-107927612D01*
X141401924Y-108188913D01*
X141401677Y-108471846D01*
X141509723Y-108733336D01*
X141709612Y-108933574D01*
X141970913Y-109042076D01*
X142253846Y-109042323D01*
X142515336Y-108934277D01*
X142715574Y-108734388D01*
X142824076Y-108473087D01*
X142824323Y-108190154D01*
X142824323Y-109692704D01*
X141595227Y-110921800D01*
X140030200Y-110921800D01*
X140030200Y-110159800D01*
X135813800Y-110159800D01*
X135813800Y-114376200D01*
X137591800Y-114376200D01*
X137591800Y-117289053D01*
X137499602Y-117427037D01*
X137464800Y-117602000D01*
X137464800Y-119952622D01*
X136582711Y-120834711D01*
X136483602Y-120983037D01*
X136448800Y-121158000D01*
X136448800Y-122895491D01*
X136303426Y-123040612D01*
X136194924Y-123301913D01*
X136194677Y-123584846D01*
X136302723Y-123846336D01*
X136502612Y-124046574D01*
X136763913Y-124155076D01*
X137046846Y-124155323D01*
X137210800Y-124087578D01*
X137210800Y-124256844D01*
X137019154Y-124256677D01*
X136757664Y-124364723D01*
X136557426Y-124564612D01*
X136448924Y-124825913D01*
X136448677Y-125108846D01*
X136556723Y-125370336D01*
X136756612Y-125570574D01*
X137017913Y-125679076D01*
X137300846Y-125679323D01*
X137562336Y-125571277D01*
X137591800Y-125541864D01*
X137591800Y-126390400D01*
X133299323Y-126390400D01*
X133299323Y-112381154D01*
X133191277Y-112119664D01*
X133045200Y-111973331D01*
X133045200Y-109768508D01*
X133190574Y-109623388D01*
X133299076Y-109362087D01*
X133299323Y-109079154D01*
X133191277Y-108817664D01*
X132991388Y-108617426D01*
X132730087Y-108508924D01*
X132447154Y-108508677D01*
X132185664Y-108616723D01*
X132029323Y-108772791D01*
X132029323Y-105523154D01*
X131921277Y-105261664D01*
X131721388Y-105061426D01*
X131460087Y-104952924D01*
X131177154Y-104952677D01*
X130915664Y-105060723D01*
X130715426Y-105260612D01*
X130606924Y-105521913D01*
X130606677Y-105804846D01*
X130714723Y-106066336D01*
X130860800Y-106212668D01*
X130860800Y-113856622D01*
X130632199Y-114085223D01*
X130632199Y-113030001D01*
X130632199Y-111124999D01*
X130597397Y-110950036D01*
X130498288Y-110801710D01*
X130251143Y-110554565D01*
X130251323Y-110349154D01*
X130143277Y-110087664D01*
X129943388Y-109887426D01*
X129829665Y-109840204D01*
X129830382Y-109839489D01*
X129997010Y-109438205D01*
X129997389Y-109003701D01*
X129997389Y-106463701D01*
X129997389Y-103923701D01*
X129997389Y-101383701D01*
X129831462Y-100982127D01*
X129524489Y-100674618D01*
X129123205Y-100507990D01*
X128688701Y-100507611D01*
X128287127Y-100673538D01*
X127979618Y-100980511D01*
X127812990Y-101381795D01*
X127812611Y-101816299D01*
X127978538Y-102217873D01*
X128285511Y-102525382D01*
X128686795Y-102692010D01*
X129121299Y-102692389D01*
X129522873Y-102526462D01*
X129830382Y-102219489D01*
X129997010Y-101818205D01*
X129997389Y-101383701D01*
X129997389Y-103923701D01*
X129831462Y-103522127D01*
X129524489Y-103214618D01*
X129123205Y-103047990D01*
X128688701Y-103047611D01*
X128287127Y-103213538D01*
X127979618Y-103520511D01*
X127812990Y-103921795D01*
X127812611Y-104356299D01*
X127978538Y-104757873D01*
X128285511Y-105065382D01*
X128686795Y-105232010D01*
X129121299Y-105232389D01*
X129522873Y-105066462D01*
X129830382Y-104759489D01*
X129997010Y-104358205D01*
X129997389Y-103923701D01*
X129997389Y-106463701D01*
X129831462Y-106062127D01*
X129524489Y-105754618D01*
X129123205Y-105587990D01*
X128688701Y-105587611D01*
X128287127Y-105753538D01*
X127979618Y-106060511D01*
X127812990Y-106461795D01*
X127812611Y-106896299D01*
X127978538Y-107297873D01*
X128285511Y-107605382D01*
X128686795Y-107772010D01*
X129121299Y-107772389D01*
X129522873Y-107606462D01*
X129830382Y-107299489D01*
X129997010Y-106898205D01*
X129997389Y-106463701D01*
X129997389Y-109003701D01*
X129831462Y-108602127D01*
X129524489Y-108294618D01*
X129123205Y-108127990D01*
X128688701Y-108127611D01*
X128287127Y-108293538D01*
X127979618Y-108600511D01*
X127812990Y-109001795D01*
X127812611Y-109436299D01*
X127978538Y-109837873D01*
X128285511Y-110145382D01*
X128686795Y-110312010D01*
X128843775Y-110312146D01*
X128828924Y-110347913D01*
X128828677Y-110630846D01*
X128843924Y-110667746D01*
X128688701Y-110667611D01*
X128287127Y-110833538D01*
X127979618Y-111140511D01*
X127812990Y-111541795D01*
X127812611Y-111976299D01*
X127978538Y-112377873D01*
X128285511Y-112685382D01*
X128686795Y-112852010D01*
X129121299Y-112852389D01*
X129522873Y-112686462D01*
X129717799Y-112491875D01*
X129717799Y-112840623D01*
X129283762Y-113274659D01*
X129123205Y-113207990D01*
X128688701Y-113207611D01*
X128287127Y-113373538D01*
X127979618Y-113680511D01*
X127812990Y-114081795D01*
X127812611Y-114516299D01*
X127978538Y-114917873D01*
X128285511Y-115225382D01*
X128686795Y-115392010D01*
X129121299Y-115392389D01*
X129522873Y-115226462D01*
X129830382Y-114919489D01*
X129997010Y-114518205D01*
X129997389Y-114083701D01*
X129930283Y-113921294D01*
X130498288Y-113353290D01*
X130597397Y-113204964D01*
X130632199Y-113030001D01*
X130632199Y-114085223D01*
X130232711Y-114484711D01*
X130133602Y-114633037D01*
X130098800Y-114808000D01*
X130098800Y-120079621D01*
X129997389Y-120181032D01*
X129997389Y-119163701D01*
X129997389Y-116623701D01*
X129831462Y-116222127D01*
X129524489Y-115914618D01*
X129123205Y-115747990D01*
X128688701Y-115747611D01*
X128287127Y-115913538D01*
X127979618Y-116220511D01*
X127812990Y-116621795D01*
X127812611Y-117056299D01*
X127978538Y-117457873D01*
X128285511Y-117765382D01*
X128686795Y-117932010D01*
X129121299Y-117932389D01*
X129522873Y-117766462D01*
X129830382Y-117459489D01*
X129997010Y-117058205D01*
X129997389Y-116623701D01*
X129997389Y-119163701D01*
X129831462Y-118762127D01*
X129524489Y-118454618D01*
X129123205Y-118287990D01*
X128688701Y-118287611D01*
X128287127Y-118453538D01*
X127979618Y-118760511D01*
X127812990Y-119161795D01*
X127812611Y-119596299D01*
X127978538Y-119997873D01*
X128285511Y-120305382D01*
X128686795Y-120472010D01*
X129121299Y-120472389D01*
X129522873Y-120306462D01*
X129830382Y-119999489D01*
X129997010Y-119598205D01*
X129997389Y-119163701D01*
X129997389Y-120181032D01*
X129283762Y-120894659D01*
X129123205Y-120827990D01*
X128688701Y-120827611D01*
X128287127Y-120993538D01*
X127979618Y-121300511D01*
X127812990Y-121701795D01*
X127812611Y-122136299D01*
X127978538Y-122537873D01*
X128285511Y-122845382D01*
X128686795Y-123012010D01*
X129121299Y-123012389D01*
X129522873Y-122846462D01*
X129830382Y-122539489D01*
X129997010Y-122138205D01*
X129997389Y-121703701D01*
X129930283Y-121541294D01*
X130879289Y-120592289D01*
X130879290Y-120592289D01*
X130978398Y-120443963D01*
X131013200Y-120269000D01*
X131013200Y-114997378D01*
X131641289Y-114369289D01*
X131740398Y-114220963D01*
X131775200Y-114046000D01*
X131775200Y-106212508D01*
X131920574Y-106067388D01*
X132029076Y-105806087D01*
X132029323Y-105523154D01*
X132029323Y-108772791D01*
X131985426Y-108816612D01*
X131876924Y-109077913D01*
X131876677Y-109360846D01*
X131984723Y-109622336D01*
X132130800Y-109768668D01*
X132130800Y-111973491D01*
X131985426Y-112118612D01*
X131876924Y-112379913D01*
X131876677Y-112662846D01*
X131984723Y-112924336D01*
X132184612Y-113124574D01*
X132445913Y-113233076D01*
X132728846Y-113233323D01*
X132990336Y-113125277D01*
X133190574Y-112925388D01*
X133299076Y-112664087D01*
X133299323Y-112381154D01*
X133299323Y-126390400D01*
X130000627Y-126390400D01*
X130000627Y-124260752D01*
X129840978Y-123856641D01*
X129820614Y-123826164D01*
X129651800Y-123749122D01*
X129615878Y-123785043D01*
X129615878Y-123713200D01*
X129538836Y-123544386D01*
X129140198Y-123371524D01*
X128705752Y-123364373D01*
X128301641Y-123524022D01*
X128271164Y-123544386D01*
X128194122Y-123713200D01*
X128905000Y-124424079D01*
X129615878Y-123713200D01*
X129615878Y-123785043D01*
X128940921Y-124460000D01*
X129651800Y-125170878D01*
X129820614Y-125093836D01*
X129993476Y-124695198D01*
X130000627Y-124260752D01*
X130000627Y-126390400D01*
X129615878Y-126390400D01*
X129615878Y-125206800D01*
X128905000Y-124495921D01*
X128869079Y-124531842D01*
X128869079Y-124460000D01*
X128158200Y-123749122D01*
X127989386Y-123826164D01*
X127816524Y-124224802D01*
X127809373Y-124659248D01*
X127969022Y-125063359D01*
X127989386Y-125093836D01*
X128158200Y-125170878D01*
X128869079Y-124460000D01*
X128869079Y-124531842D01*
X128194122Y-125206800D01*
X128271164Y-125375614D01*
X128669802Y-125548476D01*
X129104248Y-125555627D01*
X129508359Y-125395978D01*
X129538836Y-125375614D01*
X129615878Y-125206800D01*
X129615878Y-126390400D01*
X127609600Y-126390400D01*
X127609600Y-99669600D01*
X149843513Y-99669600D01*
X150583021Y-99916103D01*
X151069816Y-100159500D01*
X151300500Y-100390184D01*
X151543897Y-100876979D01*
X151790400Y-101616487D01*
X151790400Y-108381800D01*
M02*
