M48
;DRILL file {kicad (2014-08-29 BZR 5106)-product} date Wed 15 Oct 2014 11:45:22 AM PDT
;FORMAT={-:-/ absolute / inch / decimal}
FMAT,2
INCH,TZ
T1C0.020
T2C0.035
%
G90
G05
M72
T1
X5.1Y-4.35
X5.17Y-4.16
X5.18Y-4.53
X5.2Y-4.96
X5.22Y-4.11
X5.22Y-4.3
X5.22Y-4.43
X5.22Y-4.58
X5.22Y-4.67
X5.23Y-4.02
X5.23Y-4.24
X5.27Y-3.995
X5.27Y-4.21
X5.27Y-4.35
X5.27Y-4.43
X5.31Y-3.98
X5.33Y-4.12
X5.33Y-4.19
X5.3335Y-4.3165
X5.34Y-4.02
X5.39Y-4.38
X5.39Y-4.46
X5.39Y-4.86
X5.3952Y-4.7252
X5.4Y-4.92
X5.43Y-4.42
X5.45Y-4.845
X5.45Y-4.92
X5.4631Y-4.7781
X5.47Y-4.13
X5.47Y-4.23
X5.47Y-4.38
X5.47Y-4.46
X5.48Y-4.965
X5.49Y-4.06
X5.51Y-4.18
X5.51Y-4.72
X5.53Y-4.53
X5.54Y-4.645
X5.56Y-4.48
X5.56Y-4.88
X5.565Y-4.345
X5.58Y-4.965
X5.585Y-4.03
X5.585Y-4.595
X5.588Y-4.52
X5.59Y-4.745
X5.5916Y-4.4589
X5.595Y-4.265
X5.62Y-3.995
X5.67Y-4.24
X5.67Y-4.34
X5.68Y-3.995
X5.685Y-4.51
X5.685Y-4.635
X5.685Y-4.695
X5.685Y-4.765
X5.685Y-4.835
X5.685Y-4.9
X5.685Y-4.965
X5.71Y-4.57
X5.715Y-4.03
X5.73Y-4.255
X5.735Y-4.435
X5.765Y-4.545
X5.77Y-4.295
X5.79Y-4.47
X5.81Y-4.255
X5.8185Y-4.545
X5.82Y-4.37
X5.83Y-4.1
X5.865Y-4.37
X5.865Y-4.42
X5.875Y-4.255
X5.875Y-4.295
X5.895Y-4.505
X5.9Y-4.
X5.91Y-4.23
X5.91Y-4.335
X5.93Y-4.545
X5.955Y-4.255
X5.965Y-4.295
X5.965Y-4.375
X5.965Y-4.465
X5.965Y-4.545
T2
X5.075Y-4.
X5.075Y-4.1
X5.075Y-4.2
X5.075Y-4.3
X5.075Y-4.4
X5.075Y-4.5
X5.075Y-4.6
X5.075Y-4.7
X5.075Y-4.8
X5.075Y-4.9
T0
M30
